<mxfile host="app.diagrams.net" agent="Mozilla/5.0 (Windows NT 10.0; Win64; x64) AppleWebKit/537.36 (KHTML, like Gecko) Chrome/132.0.0.0 Safari/537.36 OPR/117.0.0.0" version="26.2.9">
  <diagram name="PÃ¡gina-1" id="sAgTzimuZfM5BXjoEO9Z">
    <mxGraphModel dx="3062" dy="985" grid="1" gridSize="10" guides="1" tooltips="1" connect="1" arrows="1" fold="1" page="1" pageScale="1" pageWidth="827" pageHeight="1169" math="0" shadow="0">
      <root>
        <mxCell id="0" />
        <mxCell id="1" parent="0" />
        <mxCell id="Gv9M-R4YCzaX3h8LVKHw-1" value="INICIO" style="rounded=0;whiteSpace=wrap;html=1;" vertex="1" parent="1">
          <mxGeometry x="60" y="100" width="120" height="60" as="geometry" />
        </mxCell>
        <mxCell id="Gv9M-R4YCzaX3h8LVKHw-2" value="FIM" style="rounded=0;whiteSpace=wrap;html=1;" vertex="1" parent="1">
          <mxGeometry x="180" y="100" width="120" height="60" as="geometry" />
        </mxCell>
        <mxCell id="Gv9M-R4YCzaX3h8LVKHw-3" value="" style="shape=mxgraph.arrows2.wedgeArrowDashed2;html=1;bendable=0;startWidth=50;stepSize=15;rounded=0;" edge="1" parent="1">
          <mxGeometry width="100" height="100" relative="1" as="geometry">
            <mxPoint x="179" y="210" as="sourcePoint" />
            <mxPoint x="179" y="260" as="targetPoint" />
          </mxGeometry>
        </mxCell>
        <mxCell id="Gv9M-R4YCzaX3h8LVKHw-4" value="Passo 1" style="text;html=1;align=center;verticalAlign=middle;whiteSpace=wrap;rounded=0;" vertex="1" parent="1">
          <mxGeometry x="10" y="10" width="60" height="30" as="geometry" />
        </mxCell>
        <mxCell id="Gv9M-R4YCzaX3h8LVKHw-5" value="" style="endArrow=classic;html=1;rounded=0;exitX=0.75;exitY=1;exitDx=0;exitDy=0;" edge="1" parent="1" source="Gv9M-R4YCzaX3h8LVKHw-1">
          <mxGeometry width="50" height="50" relative="1" as="geometry">
            <mxPoint x="130" y="310" as="sourcePoint" />
            <mxPoint x="150" y="210" as="targetPoint" />
          </mxGeometry>
        </mxCell>
        <mxCell id="Gv9M-R4YCzaX3h8LVKHw-6" value="" style="endArrow=classic;html=1;rounded=0;exitX=0.25;exitY=1;exitDx=0;exitDy=0;" edge="1" parent="1" source="Gv9M-R4YCzaX3h8LVKHw-2">
          <mxGeometry width="50" height="50" relative="1" as="geometry">
            <mxPoint x="160" y="170" as="sourcePoint" />
            <mxPoint x="210" y="210" as="targetPoint" />
            <Array as="points" />
          </mxGeometry>
        </mxCell>
        <mxCell id="Gv9M-R4YCzaX3h8LVKHw-7" value="" style="endArrow=none;html=1;rounded=0;" edge="1" parent="1">
          <mxGeometry width="50" height="50" relative="1" as="geometry">
            <mxPoint x="360" y="260" as="sourcePoint" />
            <mxPoint x="360" y="30" as="targetPoint" />
          </mxGeometry>
        </mxCell>
        <mxCell id="Gv9M-R4YCzaX3h8LVKHw-8" value="Passo 2" style="text;html=1;align=center;verticalAlign=middle;whiteSpace=wrap;rounded=0;" vertex="1" parent="1">
          <mxGeometry x="370" y="10" width="60" height="30" as="geometry" />
        </mxCell>
        <mxCell id="Gv9M-R4YCzaX3h8LVKHw-9" value="INICIO" style="rounded=0;whiteSpace=wrap;html=1;" vertex="1" parent="1">
          <mxGeometry x="410" y="90" width="120" height="60" as="geometry" />
        </mxCell>
        <mxCell id="Gv9M-R4YCzaX3h8LVKHw-10" value="FIM" style="rounded=0;whiteSpace=wrap;html=1;" vertex="1" parent="1">
          <mxGeometry x="530" y="90" width="120" height="60" as="geometry" />
        </mxCell>
        <mxCell id="Gv9M-R4YCzaX3h8LVKHw-11" value="" style="shape=mxgraph.arrows2.wedgeArrowDashed2;html=1;bendable=0;startWidth=50;stepSize=15;rounded=0;" edge="1" parent="1">
          <mxGeometry width="100" height="100" relative="1" as="geometry">
            <mxPoint x="529" y="200" as="sourcePoint" />
            <mxPoint x="529" y="250" as="targetPoint" />
          </mxGeometry>
        </mxCell>
        <mxCell id="Gv9M-R4YCzaX3h8LVKHw-12" value="" style="endArrow=classic;html=1;rounded=0;exitX=0.75;exitY=1;exitDx=0;exitDy=0;" edge="1" parent="1" source="Gv9M-R4YCzaX3h8LVKHw-9">
          <mxGeometry width="50" height="50" relative="1" as="geometry">
            <mxPoint x="480" y="300" as="sourcePoint" />
            <mxPoint x="500" y="200" as="targetPoint" />
          </mxGeometry>
        </mxCell>
        <mxCell id="Gv9M-R4YCzaX3h8LVKHw-13" value="" style="endArrow=classic;html=1;rounded=0;exitX=0.25;exitY=1;exitDx=0;exitDy=0;" edge="1" parent="1" source="Gv9M-R4YCzaX3h8LVKHw-10">
          <mxGeometry width="50" height="50" relative="1" as="geometry">
            <mxPoint x="510" y="160" as="sourcePoint" />
            <mxPoint x="560" y="200" as="targetPoint" />
            <Array as="points" />
          </mxGeometry>
        </mxCell>
        <mxCell id="Gv9M-R4YCzaX3h8LVKHw-14" value="NOVO" style="rounded=0;whiteSpace=wrap;html=1;" vertex="1" parent="1">
          <mxGeometry x="690" y="30" width="120" height="60" as="geometry" />
        </mxCell>
        <mxCell id="Gv9M-R4YCzaX3h8LVKHw-15" value="R" style="rounded=0;whiteSpace=wrap;html=1;" vertex="1" parent="1">
          <mxGeometry x="670" y="130" width="50" height="60" as="geometry" />
        </mxCell>
        <mxCell id="Gv9M-R4YCzaX3h8LVKHw-16" value="" style="shape=mxgraph.arrows2.wedgeArrowDashed2;html=1;bendable=0;startWidth=50;stepSize=15;rounded=0;" edge="1" parent="1">
          <mxGeometry width="100" height="100" relative="1" as="geometry">
            <mxPoint x="800" y="190" as="sourcePoint" />
            <mxPoint x="800" y="240" as="targetPoint" />
          </mxGeometry>
        </mxCell>
        <mxCell id="Gv9M-R4YCzaX3h8LVKHw-17" value="" style="endArrow=classic;html=1;rounded=0;exitX=1;exitY=0.5;exitDx=0;exitDy=0;" edge="1" parent="1" source="Gv9M-R4YCzaX3h8LVKHw-15">
          <mxGeometry width="50" height="50" relative="1" as="geometry">
            <mxPoint x="580" y="310" as="sourcePoint" />
            <mxPoint x="800" y="190" as="targetPoint" />
            <Array as="points">
              <mxPoint x="800" y="160" />
            </Array>
          </mxGeometry>
        </mxCell>
        <mxCell id="Gv9M-R4YCzaX3h8LVKHw-18" value="" style="endArrow=classic;html=1;rounded=0;exitX=0.11;exitY=1.029;exitDx=0;exitDy=0;exitPerimeter=0;entryX=0.5;entryY=0;entryDx=0;entryDy=0;" edge="1" parent="1" source="Gv9M-R4YCzaX3h8LVKHw-14" target="Gv9M-R4YCzaX3h8LVKHw-15">
          <mxGeometry width="50" height="50" relative="1" as="geometry">
            <mxPoint x="580" y="310" as="sourcePoint" />
            <mxPoint x="630" y="260" as="targetPoint" />
          </mxGeometry>
        </mxCell>
        <mxCell id="Gv9M-R4YCzaX3h8LVKHw-19" value="" style="endArrow=none;html=1;rounded=0;" edge="1" parent="1">
          <mxGeometry width="50" height="50" relative="1" as="geometry">
            <mxPoint x="870" y="260" as="sourcePoint" />
            <mxPoint x="870" y="30" as="targetPoint" />
          </mxGeometry>
        </mxCell>
        <mxCell id="Gv9M-R4YCzaX3h8LVKHw-20" value="Passo 3" style="text;html=1;align=center;verticalAlign=middle;whiteSpace=wrap;rounded=0;" vertex="1" parent="1">
          <mxGeometry x="900" y="10" width="60" height="30" as="geometry" />
        </mxCell>
        <mxCell id="Gv9M-R4YCzaX3h8LVKHw-21" value="INICIO" style="rounded=0;whiteSpace=wrap;html=1;" vertex="1" parent="1">
          <mxGeometry x="890" y="90" width="120" height="60" as="geometry" />
        </mxCell>
        <mxCell id="Gv9M-R4YCzaX3h8LVKHw-22" value="FIM" style="rounded=0;whiteSpace=wrap;html=1;" vertex="1" parent="1">
          <mxGeometry x="1020" y="70" width="120" height="60" as="geometry" />
        </mxCell>
        <mxCell id="Gv9M-R4YCzaX3h8LVKHw-23" value="" style="shape=mxgraph.arrows2.wedgeArrowDashed2;html=1;bendable=0;startWidth=50;stepSize=15;rounded=0;" edge="1" parent="1">
          <mxGeometry width="100" height="100" relative="1" as="geometry">
            <mxPoint x="1009" y="200" as="sourcePoint" />
            <mxPoint x="1009" y="250" as="targetPoint" />
          </mxGeometry>
        </mxCell>
        <mxCell id="Gv9M-R4YCzaX3h8LVKHw-24" value="" style="endArrow=classic;html=1;rounded=0;exitX=0.75;exitY=1;exitDx=0;exitDy=0;" edge="1" parent="1" source="Gv9M-R4YCzaX3h8LVKHw-21">
          <mxGeometry width="50" height="50" relative="1" as="geometry">
            <mxPoint x="960" y="300" as="sourcePoint" />
            <mxPoint x="980" y="200" as="targetPoint" />
          </mxGeometry>
        </mxCell>
        <mxCell id="Gv9M-R4YCzaX3h8LVKHw-25" value="" style="endArrow=classic;html=1;rounded=0;exitX=0.5;exitY=1;exitDx=0;exitDy=0;entryX=0;entryY=0.75;entryDx=0;entryDy=0;" edge="1" parent="1" source="Gv9M-R4YCzaX3h8LVKHw-22" target="Gv9M-R4YCzaX3h8LVKHw-26">
          <mxGeometry width="50" height="50" relative="1" as="geometry">
            <mxPoint x="990" y="160" as="sourcePoint" />
            <mxPoint x="1040" y="200" as="targetPoint" />
            <Array as="points" />
          </mxGeometry>
        </mxCell>
        <mxCell id="Gv9M-R4YCzaX3h8LVKHw-26" value="R" style="rounded=0;whiteSpace=wrap;html=1;" vertex="1" parent="1">
          <mxGeometry x="1150" y="130" width="50" height="60" as="geometry" />
        </mxCell>
        <mxCell id="Gv9M-R4YCzaX3h8LVKHw-27" value="" style="shape=mxgraph.arrows2.wedgeArrowDashed2;html=1;bendable=0;startWidth=50;stepSize=15;rounded=0;" edge="1" parent="1">
          <mxGeometry width="100" height="100" relative="1" as="geometry">
            <mxPoint x="1280" y="190" as="sourcePoint" />
            <mxPoint x="1280" y="240" as="targetPoint" />
          </mxGeometry>
        </mxCell>
        <mxCell id="Gv9M-R4YCzaX3h8LVKHw-28" value="" style="endArrow=classic;html=1;rounded=0;exitX=1;exitY=0.5;exitDx=0;exitDy=0;" edge="1" parent="1" source="Gv9M-R4YCzaX3h8LVKHw-26">
          <mxGeometry width="50" height="50" relative="1" as="geometry">
            <mxPoint x="1060" y="310" as="sourcePoint" />
            <mxPoint x="1280" y="190" as="targetPoint" />
            <Array as="points">
              <mxPoint x="1280" y="160" />
            </Array>
          </mxGeometry>
        </mxCell>
        <mxCell id="Gv9M-R4YCzaX3h8LVKHw-29" value="" style="endArrow=classic;html=1;rounded=0;exitX=0.11;exitY=1.029;exitDx=0;exitDy=0;exitPerimeter=0;entryX=0.5;entryY=0;entryDx=0;entryDy=0;" edge="1" parent="1" target="Gv9M-R4YCzaX3h8LVKHw-26">
          <mxGeometry width="50" height="50" relative="1" as="geometry">
            <mxPoint x="1183" y="92" as="sourcePoint" />
            <mxPoint x="1110" y="260" as="targetPoint" />
          </mxGeometry>
        </mxCell>
        <mxCell id="Gv9M-R4YCzaX3h8LVKHw-30" value="NOVO" style="rounded=0;whiteSpace=wrap;html=1;" vertex="1" parent="1">
          <mxGeometry x="1160" y="30" width="120" height="60" as="geometry" />
        </mxCell>
        <mxCell id="Gv9M-R4YCzaX3h8LVKHw-41" value="Passo 4" style="text;html=1;align=center;verticalAlign=middle;whiteSpace=wrap;rounded=0;" vertex="1" parent="1">
          <mxGeometry x="10" y="310" width="60" height="30" as="geometry" />
        </mxCell>
        <mxCell id="Gv9M-R4YCzaX3h8LVKHw-42" value="INICIO" style="rounded=0;whiteSpace=wrap;html=1;" vertex="1" parent="1">
          <mxGeometry x="28.82" y="350" width="120" height="60" as="geometry" />
        </mxCell>
        <mxCell id="Gv9M-R4YCzaX3h8LVKHw-43" value="FIM" style="rounded=0;whiteSpace=wrap;html=1;" vertex="1" parent="1">
          <mxGeometry x="178.82" y="350" width="120" height="60" as="geometry" />
        </mxCell>
        <mxCell id="Gv9M-R4YCzaX3h8LVKHw-45" value="" style="endArrow=classic;html=1;rounded=0;exitX=0.75;exitY=1;exitDx=0;exitDy=0;entryX=0.25;entryY=0;entryDx=0;entryDy=0;" edge="1" parent="1" source="Gv9M-R4YCzaX3h8LVKHw-42" target="Gv9M-R4YCzaX3h8LVKHw-47">
          <mxGeometry width="50" height="50" relative="1" as="geometry">
            <mxPoint x="-21.18" y="620" as="sourcePoint" />
            <mxPoint x="158.82" y="500" as="targetPoint" />
          </mxGeometry>
        </mxCell>
        <mxCell id="Gv9M-R4YCzaX3h8LVKHw-46" value="" style="endArrow=classic;html=1;rounded=0;exitX=0.5;exitY=1;exitDx=0;exitDy=0;entryX=0.75;entryY=0;entryDx=0;entryDy=0;" edge="1" parent="1" source="Gv9M-R4YCzaX3h8LVKHw-43" target="Gv9M-R4YCzaX3h8LVKHw-47">
          <mxGeometry width="50" height="50" relative="1" as="geometry">
            <mxPoint x="8.82" y="480" as="sourcePoint" />
            <mxPoint x="58.82" y="520" as="targetPoint" />
            <Array as="points" />
          </mxGeometry>
        </mxCell>
        <mxCell id="Gv9M-R4YCzaX3h8LVKHw-47" value="R" style="rounded=0;whiteSpace=wrap;html=1;" vertex="1" parent="1">
          <mxGeometry x="168.82" y="450" width="50" height="60" as="geometry" />
        </mxCell>
        <mxCell id="Gv9M-R4YCzaX3h8LVKHw-48" value="" style="shape=mxgraph.arrows2.wedgeArrowDashed2;html=1;bendable=0;startWidth=50;stepSize=15;rounded=0;" edge="1" parent="1">
          <mxGeometry width="100" height="100" relative="1" as="geometry">
            <mxPoint x="280" y="510" as="sourcePoint" />
            <mxPoint x="280" y="560" as="targetPoint" />
          </mxGeometry>
        </mxCell>
        <mxCell id="Gv9M-R4YCzaX3h8LVKHw-49" value="" style="endArrow=classic;html=1;rounded=0;exitX=1;exitY=0.5;exitDx=0;exitDy=0;" edge="1" parent="1" source="Gv9M-R4YCzaX3h8LVKHw-47">
          <mxGeometry width="50" height="50" relative="1" as="geometry">
            <mxPoint x="78.82" y="630" as="sourcePoint" />
            <mxPoint x="298.82" y="510" as="targetPoint" />
            <Array as="points">
              <mxPoint x="298.82" y="480" />
            </Array>
          </mxGeometry>
        </mxCell>
        <mxCell id="Gv9M-R4YCzaX3h8LVKHw-52" value="" style="endArrow=none;html=1;rounded=0;" edge="1" parent="1">
          <mxGeometry width="50" height="50" relative="1" as="geometry">
            <mxPoint x="360" y="540" as="sourcePoint" />
            <mxPoint x="360" y="310" as="targetPoint" />
          </mxGeometry>
        </mxCell>
        <mxCell id="Gv9M-R4YCzaX3h8LVKHw-53" value="Passo 5" style="text;html=1;align=center;verticalAlign=middle;whiteSpace=wrap;rounded=0;" vertex="1" parent="1">
          <mxGeometry x="381.18" y="320" width="60" height="30" as="geometry" />
        </mxCell>
        <mxCell id="Gv9M-R4YCzaX3h8LVKHw-54" value="INICIO" style="rounded=0;whiteSpace=wrap;html=1;" vertex="1" parent="1">
          <mxGeometry x="400" y="360" width="120" height="60" as="geometry" />
        </mxCell>
        <mxCell id="Gv9M-R4YCzaX3h8LVKHw-55" value="FIM" style="rounded=0;whiteSpace=wrap;html=1;" vertex="1" parent="1">
          <mxGeometry x="550" y="360" width="120" height="60" as="geometry" />
        </mxCell>
        <mxCell id="Gv9M-R4YCzaX3h8LVKHw-56" value="" style="endArrow=classic;html=1;rounded=0;exitX=0.75;exitY=1;exitDx=0;exitDy=0;entryX=0.25;entryY=0;entryDx=0;entryDy=0;" edge="1" parent="1" source="Gv9M-R4YCzaX3h8LVKHw-54" target="Gv9M-R4YCzaX3h8LVKHw-58">
          <mxGeometry width="50" height="50" relative="1" as="geometry">
            <mxPoint x="350" y="630" as="sourcePoint" />
            <mxPoint x="530" y="510" as="targetPoint" />
          </mxGeometry>
        </mxCell>
        <mxCell id="Gv9M-R4YCzaX3h8LVKHw-57" value="" style="endArrow=classic;html=1;rounded=0;exitX=0.5;exitY=1;exitDx=0;exitDy=0;entryX=0.75;entryY=0;entryDx=0;entryDy=0;" edge="1" parent="1" source="Gv9M-R4YCzaX3h8LVKHw-55" target="Gv9M-R4YCzaX3h8LVKHw-58">
          <mxGeometry width="50" height="50" relative="1" as="geometry">
            <mxPoint x="380" y="490" as="sourcePoint" />
            <mxPoint x="430" y="530" as="targetPoint" />
            <Array as="points" />
          </mxGeometry>
        </mxCell>
        <mxCell id="Gv9M-R4YCzaX3h8LVKHw-58" value="R" style="rounded=0;whiteSpace=wrap;html=1;" vertex="1" parent="1">
          <mxGeometry x="540" y="460" width="50" height="60" as="geometry" />
        </mxCell>
        <mxCell id="Gv9M-R4YCzaX3h8LVKHw-59" value="" style="shape=mxgraph.arrows2.wedgeArrowDashed2;html=1;bendable=0;startWidth=50;stepSize=15;rounded=0;" edge="1" parent="1">
          <mxGeometry width="100" height="100" relative="1" as="geometry">
            <mxPoint x="651.1800000000001" y="520" as="sourcePoint" />
            <mxPoint x="651.1800000000001" y="570" as="targetPoint" />
          </mxGeometry>
        </mxCell>
        <mxCell id="Gv9M-R4YCzaX3h8LVKHw-60" value="" style="endArrow=classic;html=1;rounded=0;exitX=1;exitY=0.5;exitDx=0;exitDy=0;" edge="1" parent="1" source="Gv9M-R4YCzaX3h8LVKHw-58">
          <mxGeometry width="50" height="50" relative="1" as="geometry">
            <mxPoint x="450" y="640" as="sourcePoint" />
            <mxPoint x="670" y="520" as="targetPoint" />
            <Array as="points">
              <mxPoint x="670" y="490" />
            </Array>
          </mxGeometry>
        </mxCell>
        <mxCell id="Gv9M-R4YCzaX3h8LVKHw-61" value="A" style="rounded=0;whiteSpace=wrap;html=1;" vertex="1" parent="1">
          <mxGeometry x="720" y="450" width="50" height="60" as="geometry" />
        </mxCell>
        <mxCell id="Gv9M-R4YCzaX3h8LVKHw-62" value="" style="shape=mxgraph.arrows2.wedgeArrowDashed2;html=1;bendable=0;startWidth=50;stepSize=15;rounded=0;" edge="1" parent="1">
          <mxGeometry width="100" height="100" relative="1" as="geometry">
            <mxPoint x="831.1800000000001" y="510" as="sourcePoint" />
            <mxPoint x="831.1800000000001" y="560" as="targetPoint" />
          </mxGeometry>
        </mxCell>
        <mxCell id="Gv9M-R4YCzaX3h8LVKHw-63" value="" style="endArrow=classic;html=1;rounded=0;exitX=1;exitY=0.5;exitDx=0;exitDy=0;" edge="1" parent="1" source="Gv9M-R4YCzaX3h8LVKHw-61">
          <mxGeometry width="50" height="50" relative="1" as="geometry">
            <mxPoint x="630" y="630" as="sourcePoint" />
            <mxPoint x="850" y="510" as="targetPoint" />
            <Array as="points">
              <mxPoint x="850" y="480" />
            </Array>
          </mxGeometry>
        </mxCell>
        <mxCell id="Gv9M-R4YCzaX3h8LVKHw-64" value="NOVO" style="rounded=0;whiteSpace=wrap;html=1;" vertex="1" parent="1">
          <mxGeometry x="740" y="350" width="120" height="60" as="geometry" />
        </mxCell>
        <mxCell id="Gv9M-R4YCzaX3h8LVKHw-65" value="" style="endArrow=classic;html=1;rounded=0;exitX=0.11;exitY=1.029;exitDx=0;exitDy=0;exitPerimeter=0;entryX=0.5;entryY=0;entryDx=0;entryDy=0;" edge="1" parent="1" source="Gv9M-R4YCzaX3h8LVKHw-64">
          <mxGeometry width="50" height="50" relative="1" as="geometry">
            <mxPoint x="630" y="630" as="sourcePoint" />
            <mxPoint x="745" y="450" as="targetPoint" />
          </mxGeometry>
        </mxCell>
        <mxCell id="Gv9M-R4YCzaX3h8LVKHw-66" value="" style="endArrow=none;html=1;rounded=0;" edge="1" parent="1">
          <mxGeometry width="50" height="50" relative="1" as="geometry">
            <mxPoint x="900" y="560" as="sourcePoint" />
            <mxPoint x="900" y="330" as="targetPoint" />
          </mxGeometry>
        </mxCell>
        <mxCell id="Gv9M-R4YCzaX3h8LVKHw-67" value="INICIO" style="rounded=0;whiteSpace=wrap;html=1;" vertex="1" parent="1">
          <mxGeometry x="945" y="360" width="120" height="60" as="geometry" />
        </mxCell>
        <mxCell id="Gv9M-R4YCzaX3h8LVKHw-68" value="FIM" style="rounded=0;whiteSpace=wrap;html=1;" vertex="1" parent="1">
          <mxGeometry x="1095" y="360" width="120" height="60" as="geometry" />
        </mxCell>
        <mxCell id="Gv9M-R4YCzaX3h8LVKHw-69" value="" style="endArrow=classic;html=1;rounded=0;exitX=0.75;exitY=1;exitDx=0;exitDy=0;entryX=0.25;entryY=0;entryDx=0;entryDy=0;" edge="1" parent="1" source="Gv9M-R4YCzaX3h8LVKHw-67" target="Gv9M-R4YCzaX3h8LVKHw-71">
          <mxGeometry width="50" height="50" relative="1" as="geometry">
            <mxPoint x="895" y="630" as="sourcePoint" />
            <mxPoint x="1075" y="510" as="targetPoint" />
          </mxGeometry>
        </mxCell>
        <mxCell id="Gv9M-R4YCzaX3h8LVKHw-70" value="" style="endArrow=classic;html=1;rounded=0;exitX=0.5;exitY=1;exitDx=0;exitDy=0;entryX=0.75;entryY=0;entryDx=0;entryDy=0;" edge="1" parent="1" source="Gv9M-R4YCzaX3h8LVKHw-68" target="Gv9M-R4YCzaX3h8LVKHw-71">
          <mxGeometry width="50" height="50" relative="1" as="geometry">
            <mxPoint x="925" y="490" as="sourcePoint" />
            <mxPoint x="975" y="530" as="targetPoint" />
            <Array as="points" />
          </mxGeometry>
        </mxCell>
        <mxCell id="Gv9M-R4YCzaX3h8LVKHw-71" value="R" style="rounded=0;whiteSpace=wrap;html=1;" vertex="1" parent="1">
          <mxGeometry x="1085" y="460" width="50" height="60" as="geometry" />
        </mxCell>
        <mxCell id="Gv9M-R4YCzaX3h8LVKHw-73" value="" style="endArrow=classic;html=1;rounded=0;exitX=1;exitY=0.5;exitDx=0;exitDy=0;" edge="1" parent="1" source="Gv9M-R4YCzaX3h8LVKHw-71">
          <mxGeometry width="50" height="50" relative="1" as="geometry">
            <mxPoint x="995" y="640" as="sourcePoint" />
            <mxPoint x="1260" y="490" as="targetPoint" />
            <Array as="points">
              <mxPoint x="1215" y="490" />
            </Array>
          </mxGeometry>
        </mxCell>
        <mxCell id="Gv9M-R4YCzaX3h8LVKHw-74" value="A" style="rounded=0;whiteSpace=wrap;html=1;" vertex="1" parent="1">
          <mxGeometry x="1265" y="450" width="50" height="60" as="geometry" />
        </mxCell>
        <mxCell id="Gv9M-R4YCzaX3h8LVKHw-75" value="" style="shape=mxgraph.arrows2.wedgeArrowDashed2;html=1;bendable=0;startWidth=50;stepSize=15;rounded=0;" edge="1" parent="1">
          <mxGeometry width="100" height="100" relative="1" as="geometry">
            <mxPoint x="1376.18" y="510" as="sourcePoint" />
            <mxPoint x="1376.18" y="560" as="targetPoint" />
          </mxGeometry>
        </mxCell>
        <mxCell id="Gv9M-R4YCzaX3h8LVKHw-76" value="" style="endArrow=classic;html=1;rounded=0;exitX=1;exitY=0.5;exitDx=0;exitDy=0;" edge="1" parent="1" source="Gv9M-R4YCzaX3h8LVKHw-74">
          <mxGeometry width="50" height="50" relative="1" as="geometry">
            <mxPoint x="1175" y="630" as="sourcePoint" />
            <mxPoint x="1395" y="510" as="targetPoint" />
            <Array as="points">
              <mxPoint x="1395" y="480" />
            </Array>
          </mxGeometry>
        </mxCell>
        <mxCell id="Gv9M-R4YCzaX3h8LVKHw-77" value="NOVO" style="rounded=0;whiteSpace=wrap;html=1;" vertex="1" parent="1">
          <mxGeometry x="1285" y="350" width="120" height="60" as="geometry" />
        </mxCell>
        <mxCell id="Gv9M-R4YCzaX3h8LVKHw-78" value="" style="endArrow=classic;html=1;rounded=0;exitX=0.11;exitY=1.029;exitDx=0;exitDy=0;exitPerimeter=0;entryX=0.5;entryY=0;entryDx=0;entryDy=0;" edge="1" parent="1" source="Gv9M-R4YCzaX3h8LVKHw-77">
          <mxGeometry width="50" height="50" relative="1" as="geometry">
            <mxPoint x="1175" y="630" as="sourcePoint" />
            <mxPoint x="1290" y="450" as="targetPoint" />
          </mxGeometry>
        </mxCell>
        <mxCell id="Gv9M-R4YCzaX3h8LVKHw-79" value="Passo 6" style="text;html=1;align=center;verticalAlign=middle;whiteSpace=wrap;rounded=0;" vertex="1" parent="1">
          <mxGeometry x="930" y="324" width="60" height="30" as="geometry" />
        </mxCell>
        <mxCell id="Gv9M-R4YCzaX3h8LVKHw-80" value="INICIO" style="rounded=0;whiteSpace=wrap;html=1;" vertex="1" parent="1">
          <mxGeometry x="-120" y="640" width="120" height="60" as="geometry" />
        </mxCell>
        <mxCell id="Gv9M-R4YCzaX3h8LVKHw-81" value="FIM" style="rounded=0;whiteSpace=wrap;html=1;" vertex="1" parent="1">
          <mxGeometry x="168.82" y="620" width="120" height="60" as="geometry" />
        </mxCell>
        <mxCell id="Gv9M-R4YCzaX3h8LVKHw-82" value="" style="endArrow=classic;html=1;rounded=0;exitX=0.75;exitY=1;exitDx=0;exitDy=0;entryX=0.25;entryY=0;entryDx=0;entryDy=0;" edge="1" parent="1" source="Gv9M-R4YCzaX3h8LVKHw-80" target="Gv9M-R4YCzaX3h8LVKHw-84">
          <mxGeometry width="50" height="50" relative="1" as="geometry">
            <mxPoint x="-170" y="910" as="sourcePoint" />
            <mxPoint x="10" y="790" as="targetPoint" />
          </mxGeometry>
        </mxCell>
        <mxCell id="Gv9M-R4YCzaX3h8LVKHw-83" value="" style="endArrow=classic;html=1;rounded=0;exitX=0.5;exitY=1;exitDx=0;exitDy=0;entryX=0.5;entryY=0;entryDx=0;entryDy=0;" edge="1" parent="1" source="Gv9M-R4YCzaX3h8LVKHw-81" target="Gv9M-R4YCzaX3h8LVKHw-86">
          <mxGeometry width="50" height="50" relative="1" as="geometry">
            <mxPoint x="-140" y="770" as="sourcePoint" />
            <mxPoint x="-90" y="810" as="targetPoint" />
            <Array as="points" />
          </mxGeometry>
        </mxCell>
        <mxCell id="Gv9M-R4YCzaX3h8LVKHw-84" value="R" style="rounded=0;whiteSpace=wrap;html=1;" vertex="1" parent="1">
          <mxGeometry x="20" y="740" width="50" height="60" as="geometry" />
        </mxCell>
        <mxCell id="Gv9M-R4YCzaX3h8LVKHw-85" value="" style="endArrow=classic;html=1;rounded=0;exitX=1;exitY=0.5;exitDx=0;exitDy=0;" edge="1" parent="1" source="Gv9M-R4YCzaX3h8LVKHw-84">
          <mxGeometry width="50" height="50" relative="1" as="geometry">
            <mxPoint x="-70" y="920" as="sourcePoint" />
            <mxPoint x="195" y="770" as="targetPoint" />
            <Array as="points">
              <mxPoint x="150" y="770" />
            </Array>
          </mxGeometry>
        </mxCell>
        <mxCell id="Gv9M-R4YCzaX3h8LVKHw-86" value="A" style="rounded=0;whiteSpace=wrap;html=1;" vertex="1" parent="1">
          <mxGeometry x="200" y="730" width="50" height="60" as="geometry" />
        </mxCell>
        <mxCell id="Gv9M-R4YCzaX3h8LVKHw-87" value="" style="shape=mxgraph.arrows2.wedgeArrowDashed2;html=1;bendable=0;startWidth=50;stepSize=15;rounded=0;" edge="1" parent="1">
          <mxGeometry width="100" height="100" relative="1" as="geometry">
            <mxPoint x="311.18000000000006" y="790" as="sourcePoint" />
            <mxPoint x="311.18000000000006" y="840" as="targetPoint" />
          </mxGeometry>
        </mxCell>
        <mxCell id="Gv9M-R4YCzaX3h8LVKHw-88" value="" style="endArrow=classic;html=1;rounded=0;exitX=1;exitY=0.5;exitDx=0;exitDy=0;" edge="1" parent="1" source="Gv9M-R4YCzaX3h8LVKHw-86">
          <mxGeometry width="50" height="50" relative="1" as="geometry">
            <mxPoint x="110" y="910" as="sourcePoint" />
            <mxPoint x="330" y="790" as="targetPoint" />
            <Array as="points">
              <mxPoint x="330" y="760" />
            </Array>
          </mxGeometry>
        </mxCell>
        <mxCell id="Gv9M-R4YCzaX3h8LVKHw-91" value="Passo 7" style="text;html=1;align=center;verticalAlign=middle;whiteSpace=wrap;rounded=0;" vertex="1" parent="1">
          <mxGeometry x="-90" y="569" width="60" height="30" as="geometry" />
        </mxCell>
        <mxCell id="Gv9M-R4YCzaX3h8LVKHw-92" value="" style="endArrow=none;html=1;rounded=0;" edge="1" parent="1">
          <mxGeometry width="50" height="50" relative="1" as="geometry">
            <mxPoint x="1120" y="850" as="sourcePoint" />
            <mxPoint x="1120" y="620" as="targetPoint" />
          </mxGeometry>
        </mxCell>
        <mxCell id="Gv9M-R4YCzaX3h8LVKHw-93" value="INICIO" style="rounded=0;whiteSpace=wrap;html=1;" vertex="1" parent="1">
          <mxGeometry x="460" y="640" width="120" height="60" as="geometry" />
        </mxCell>
        <mxCell id="Gv9M-R4YCzaX3h8LVKHw-94" value="FIM" style="rounded=0;whiteSpace=wrap;html=1;" vertex="1" parent="1">
          <mxGeometry x="660" y="630" width="120" height="60" as="geometry" />
        </mxCell>
        <mxCell id="Gv9M-R4YCzaX3h8LVKHw-95" value="" style="endArrow=classic;html=1;rounded=0;exitX=0.75;exitY=1;exitDx=0;exitDy=0;entryX=0.25;entryY=0;entryDx=0;entryDy=0;" edge="1" parent="1" source="Gv9M-R4YCzaX3h8LVKHw-93" target="Gv9M-R4YCzaX3h8LVKHw-97">
          <mxGeometry width="50" height="50" relative="1" as="geometry">
            <mxPoint x="350" y="910" as="sourcePoint" />
            <mxPoint x="530" y="790" as="targetPoint" />
          </mxGeometry>
        </mxCell>
        <mxCell id="Gv9M-R4YCzaX3h8LVKHw-96" value="" style="endArrow=classic;html=1;rounded=0;exitX=0.5;exitY=1;exitDx=0;exitDy=0;entryX=0;entryY=0;entryDx=0;entryDy=0;" edge="1" parent="1" source="Gv9M-R4YCzaX3h8LVKHw-94" target="Gv9M-R4YCzaX3h8LVKHw-99">
          <mxGeometry width="50" height="50" relative="1" as="geometry">
            <mxPoint x="380" y="770" as="sourcePoint" />
            <mxPoint x="430" y="810" as="targetPoint" />
            <Array as="points" />
          </mxGeometry>
        </mxCell>
        <mxCell id="Gv9M-R4YCzaX3h8LVKHw-97" value="R" style="rounded=0;whiteSpace=wrap;html=1;" vertex="1" parent="1">
          <mxGeometry x="540" y="740" width="50" height="60" as="geometry" />
        </mxCell>
        <mxCell id="Gv9M-R4YCzaX3h8LVKHw-98" value="" style="endArrow=classic;html=1;rounded=0;exitX=1;exitY=0.5;exitDx=0;exitDy=0;" edge="1" parent="1" source="Gv9M-R4YCzaX3h8LVKHw-97">
          <mxGeometry width="50" height="50" relative="1" as="geometry">
            <mxPoint x="450" y="920" as="sourcePoint" />
            <mxPoint x="715" y="770" as="targetPoint" />
            <Array as="points">
              <mxPoint x="670" y="770" />
            </Array>
          </mxGeometry>
        </mxCell>
        <mxCell id="Gv9M-R4YCzaX3h8LVKHw-99" value="A" style="rounded=0;whiteSpace=wrap;html=1;" vertex="1" parent="1">
          <mxGeometry x="720" y="730" width="50" height="60" as="geometry" />
        </mxCell>
        <mxCell id="Gv9M-R4YCzaX3h8LVKHw-100" value="" style="shape=mxgraph.arrows2.wedgeArrowDashed2;html=1;bendable=0;startWidth=50;stepSize=15;rounded=0;" edge="1" parent="1">
          <mxGeometry width="100" height="100" relative="1" as="geometry">
            <mxPoint x="831.1800000000001" y="790" as="sourcePoint" />
            <mxPoint x="831.1800000000001" y="840" as="targetPoint" />
          </mxGeometry>
        </mxCell>
        <mxCell id="Gv9M-R4YCzaX3h8LVKHw-101" value="" style="endArrow=classic;html=1;rounded=0;exitX=1;exitY=0.5;exitDx=0;exitDy=0;" edge="1" parent="1" source="Gv9M-R4YCzaX3h8LVKHw-99">
          <mxGeometry width="50" height="50" relative="1" as="geometry">
            <mxPoint x="630" y="910" as="sourcePoint" />
            <mxPoint x="850" y="790" as="targetPoint" />
            <Array as="points">
              <mxPoint x="850" y="760" />
            </Array>
          </mxGeometry>
        </mxCell>
        <mxCell id="Gv9M-R4YCzaX3h8LVKHw-104" value="Passo 8" style="text;html=1;align=center;verticalAlign=middle;whiteSpace=wrap;rounded=0;" vertex="1" parent="1">
          <mxGeometry x="430" y="569" width="60" height="30" as="geometry" />
        </mxCell>
        <mxCell id="Gv9M-R4YCzaX3h8LVKHw-105" value="M" style="rounded=0;whiteSpace=wrap;html=1;" vertex="1" parent="1">
          <mxGeometry x="900" y="730" width="50" height="60" as="geometry" />
        </mxCell>
        <mxCell id="Gv9M-R4YCzaX3h8LVKHw-106" value="" style="shape=mxgraph.arrows2.wedgeArrowDashed2;html=1;bendable=0;startWidth=50;stepSize=15;rounded=0;" edge="1" parent="1">
          <mxGeometry width="100" height="100" relative="1" as="geometry">
            <mxPoint x="1011.1800000000001" y="790" as="sourcePoint" />
            <mxPoint x="1011.1800000000001" y="840" as="targetPoint" />
          </mxGeometry>
        </mxCell>
        <mxCell id="Gv9M-R4YCzaX3h8LVKHw-107" value="" style="endArrow=classic;html=1;rounded=0;exitX=1;exitY=0.5;exitDx=0;exitDy=0;" edge="1" parent="1" source="Gv9M-R4YCzaX3h8LVKHw-105">
          <mxGeometry width="50" height="50" relative="1" as="geometry">
            <mxPoint x="810" y="910" as="sourcePoint" />
            <mxPoint x="1030" y="790" as="targetPoint" />
            <Array as="points">
              <mxPoint x="1030" y="760" />
            </Array>
          </mxGeometry>
        </mxCell>
        <mxCell id="Gv9M-R4YCzaX3h8LVKHw-108" value="NOVO" style="rounded=0;whiteSpace=wrap;html=1;" vertex="1" parent="1">
          <mxGeometry x="920" y="630" width="120" height="60" as="geometry" />
        </mxCell>
        <mxCell id="Gv9M-R4YCzaX3h8LVKHw-109" value="" style="endArrow=classic;html=1;rounded=0;exitX=0.11;exitY=1.029;exitDx=0;exitDy=0;exitPerimeter=0;entryX=0.5;entryY=0;entryDx=0;entryDy=0;" edge="1" parent="1" source="Gv9M-R4YCzaX3h8LVKHw-108">
          <mxGeometry width="50" height="50" relative="1" as="geometry">
            <mxPoint x="810" y="910" as="sourcePoint" />
            <mxPoint x="925" y="730" as="targetPoint" />
          </mxGeometry>
        </mxCell>
        <mxCell id="Gv9M-R4YCzaX3h8LVKHw-110" value="" style="endArrow=none;html=1;rounded=0;" edge="1" parent="1">
          <mxGeometry width="50" height="50" relative="1" as="geometry">
            <mxPoint x="389.64" y="839" as="sourcePoint" />
            <mxPoint x="389.64" y="609" as="targetPoint" />
          </mxGeometry>
        </mxCell>
        <mxCell id="Gv9M-R4YCzaX3h8LVKHw-111" value="INICIO" style="rounded=0;whiteSpace=wrap;html=1;" vertex="1" parent="1">
          <mxGeometry x="1170" y="640" width="120" height="60" as="geometry" />
        </mxCell>
        <mxCell id="Gv9M-R4YCzaX3h8LVKHw-112" value="FIM" style="rounded=0;whiteSpace=wrap;html=1;" vertex="1" parent="1">
          <mxGeometry x="1370" y="630" width="120" height="60" as="geometry" />
        </mxCell>
        <mxCell id="Gv9M-R4YCzaX3h8LVKHw-113" value="" style="endArrow=classic;html=1;rounded=0;exitX=0.75;exitY=1;exitDx=0;exitDy=0;entryX=0.25;entryY=0;entryDx=0;entryDy=0;" edge="1" parent="1" source="Gv9M-R4YCzaX3h8LVKHw-111" target="Gv9M-R4YCzaX3h8LVKHw-115">
          <mxGeometry width="50" height="50" relative="1" as="geometry">
            <mxPoint x="1060" y="910" as="sourcePoint" />
            <mxPoint x="1240" y="790" as="targetPoint" />
          </mxGeometry>
        </mxCell>
        <mxCell id="Gv9M-R4YCzaX3h8LVKHw-114" value="" style="endArrow=classic;html=1;rounded=0;exitX=0.5;exitY=1;exitDx=0;exitDy=0;entryX=0;entryY=0;entryDx=0;entryDy=0;" edge="1" parent="1" source="Gv9M-R4YCzaX3h8LVKHw-112" target="Gv9M-R4YCzaX3h8LVKHw-117">
          <mxGeometry width="50" height="50" relative="1" as="geometry">
            <mxPoint x="1090" y="770" as="sourcePoint" />
            <mxPoint x="1140" y="810" as="targetPoint" />
            <Array as="points" />
          </mxGeometry>
        </mxCell>
        <mxCell id="Gv9M-R4YCzaX3h8LVKHw-115" value="R" style="rounded=0;whiteSpace=wrap;html=1;" vertex="1" parent="1">
          <mxGeometry x="1250" y="740" width="50" height="60" as="geometry" />
        </mxCell>
        <mxCell id="Gv9M-R4YCzaX3h8LVKHw-116" value="" style="endArrow=classic;html=1;rounded=0;exitX=1;exitY=0.5;exitDx=0;exitDy=0;" edge="1" parent="1" source="Gv9M-R4YCzaX3h8LVKHw-115">
          <mxGeometry width="50" height="50" relative="1" as="geometry">
            <mxPoint x="1160" y="920" as="sourcePoint" />
            <mxPoint x="1425" y="770" as="targetPoint" />
            <Array as="points">
              <mxPoint x="1380" y="770" />
            </Array>
          </mxGeometry>
        </mxCell>
        <mxCell id="Gv9M-R4YCzaX3h8LVKHw-117" value="A" style="rounded=0;whiteSpace=wrap;html=1;" vertex="1" parent="1">
          <mxGeometry x="1430" y="730" width="50" height="60" as="geometry" />
        </mxCell>
        <mxCell id="Gv9M-R4YCzaX3h8LVKHw-119" value="" style="endArrow=classic;html=1;rounded=0;exitX=1;exitY=0.5;exitDx=0;exitDy=0;entryX=0;entryY=0.5;entryDx=0;entryDy=0;" edge="1" parent="1" source="Gv9M-R4YCzaX3h8LVKHw-117" target="Gv9M-R4YCzaX3h8LVKHw-121">
          <mxGeometry width="50" height="50" relative="1" as="geometry">
            <mxPoint x="1340" y="910" as="sourcePoint" />
            <mxPoint x="1560" y="790" as="targetPoint" />
            <Array as="points">
              <mxPoint x="1560" y="760" />
            </Array>
          </mxGeometry>
        </mxCell>
        <mxCell id="Gv9M-R4YCzaX3h8LVKHw-120" value="Passo 9" style="text;html=1;align=center;verticalAlign=middle;whiteSpace=wrap;rounded=0;" vertex="1" parent="1">
          <mxGeometry x="1140" y="569" width="60" height="30" as="geometry" />
        </mxCell>
        <mxCell id="Gv9M-R4YCzaX3h8LVKHw-121" value="M" style="rounded=0;whiteSpace=wrap;html=1;" vertex="1" parent="1">
          <mxGeometry x="1610" y="730" width="50" height="60" as="geometry" />
        </mxCell>
        <mxCell id="Gv9M-R4YCzaX3h8LVKHw-122" value="" style="shape=mxgraph.arrows2.wedgeArrowDashed2;html=1;bendable=0;startWidth=50;stepSize=15;rounded=0;" edge="1" parent="1">
          <mxGeometry width="100" height="100" relative="1" as="geometry">
            <mxPoint x="1721.18" y="790" as="sourcePoint" />
            <mxPoint x="1721.18" y="840" as="targetPoint" />
          </mxGeometry>
        </mxCell>
        <mxCell id="Gv9M-R4YCzaX3h8LVKHw-123" value="" style="endArrow=classic;html=1;rounded=0;exitX=1;exitY=0.5;exitDx=0;exitDy=0;" edge="1" parent="1" source="Gv9M-R4YCzaX3h8LVKHw-121">
          <mxGeometry width="50" height="50" relative="1" as="geometry">
            <mxPoint x="1520" y="910" as="sourcePoint" />
            <mxPoint x="1740" y="790" as="targetPoint" />
            <Array as="points">
              <mxPoint x="1740" y="760" />
            </Array>
          </mxGeometry>
        </mxCell>
        <mxCell id="Gv9M-R4YCzaX3h8LVKHw-124" value="NOVO" style="rounded=0;whiteSpace=wrap;html=1;" vertex="1" parent="1">
          <mxGeometry x="1630" y="630" width="120" height="60" as="geometry" />
        </mxCell>
        <mxCell id="Gv9M-R4YCzaX3h8LVKHw-125" value="" style="endArrow=classic;html=1;rounded=0;exitX=0.11;exitY=1.029;exitDx=0;exitDy=0;exitPerimeter=0;entryX=0.5;entryY=0;entryDx=0;entryDy=0;" edge="1" parent="1" source="Gv9M-R4YCzaX3h8LVKHw-124">
          <mxGeometry width="50" height="50" relative="1" as="geometry">
            <mxPoint x="1520" y="910" as="sourcePoint" />
            <mxPoint x="1635" y="730" as="targetPoint" />
          </mxGeometry>
        </mxCell>
        <mxCell id="Gv9M-R4YCzaX3h8LVKHw-127" value="INICIO" style="rounded=0;whiteSpace=wrap;html=1;" vertex="1" parent="1">
          <mxGeometry x="-110" y="991" width="120" height="60" as="geometry" />
        </mxCell>
        <mxCell id="Gv9M-R4YCzaX3h8LVKHw-128" value="FIM" style="rounded=0;whiteSpace=wrap;html=1;" vertex="1" parent="1">
          <mxGeometry x="370" y="950" width="120" height="60" as="geometry" />
        </mxCell>
        <mxCell id="Gv9M-R4YCzaX3h8LVKHw-129" value="" style="endArrow=classic;html=1;rounded=0;exitX=0.75;exitY=1;exitDx=0;exitDy=0;entryX=0.25;entryY=0;entryDx=0;entryDy=0;" edge="1" parent="1" source="Gv9M-R4YCzaX3h8LVKHw-127" target="Gv9M-R4YCzaX3h8LVKHw-131">
          <mxGeometry width="50" height="50" relative="1" as="geometry">
            <mxPoint x="-330" y="1261" as="sourcePoint" />
            <mxPoint x="-150" y="1141" as="targetPoint" />
          </mxGeometry>
        </mxCell>
        <mxCell id="Gv9M-R4YCzaX3h8LVKHw-130" value="" style="endArrow=classic;html=1;rounded=0;exitX=0.25;exitY=1;exitDx=0;exitDy=0;entryX=0.5;entryY=0;entryDx=0;entryDy=0;" edge="1" parent="1" source="Gv9M-R4YCzaX3h8LVKHw-128" target="Gv9M-R4YCzaX3h8LVKHw-143">
          <mxGeometry width="50" height="50" relative="1" as="geometry">
            <mxPoint x="-300" y="1121" as="sourcePoint" />
            <mxPoint x="-250" y="1161" as="targetPoint" />
            <Array as="points" />
          </mxGeometry>
        </mxCell>
        <mxCell id="Gv9M-R4YCzaX3h8LVKHw-131" value="R" style="rounded=0;whiteSpace=wrap;html=1;" vertex="1" parent="1">
          <mxGeometry x="-140" y="1091" width="50" height="60" as="geometry" />
        </mxCell>
        <mxCell id="Gv9M-R4YCzaX3h8LVKHw-132" value="" style="endArrow=classic;html=1;rounded=0;exitX=1;exitY=0.5;exitDx=0;exitDy=0;" edge="1" parent="1" source="Gv9M-R4YCzaX3h8LVKHw-131">
          <mxGeometry width="50" height="50" relative="1" as="geometry">
            <mxPoint x="-230" y="1271" as="sourcePoint" />
            <mxPoint x="35" y="1121" as="targetPoint" />
            <Array as="points">
              <mxPoint x="-10" y="1121" />
            </Array>
          </mxGeometry>
        </mxCell>
        <mxCell id="Gv9M-R4YCzaX3h8LVKHw-133" value="A" style="rounded=0;whiteSpace=wrap;html=1;" vertex="1" parent="1">
          <mxGeometry x="40" y="1081" width="50" height="60" as="geometry" />
        </mxCell>
        <mxCell id="Gv9M-R4YCzaX3h8LVKHw-134" value="" style="endArrow=classic;html=1;rounded=0;exitX=1;exitY=0.5;exitDx=0;exitDy=0;entryX=0;entryY=0.5;entryDx=0;entryDy=0;" edge="1" parent="1" source="Gv9M-R4YCzaX3h8LVKHw-133" target="Gv9M-R4YCzaX3h8LVKHw-136">
          <mxGeometry width="50" height="50" relative="1" as="geometry">
            <mxPoint x="-50" y="1261" as="sourcePoint" />
            <mxPoint x="170" y="1141" as="targetPoint" />
            <Array as="points">
              <mxPoint x="170" y="1111" />
            </Array>
          </mxGeometry>
        </mxCell>
        <mxCell id="Gv9M-R4YCzaX3h8LVKHw-135" value="Passo 14" style="text;html=1;align=center;verticalAlign=middle;whiteSpace=wrap;rounded=0;" vertex="1" parent="1">
          <mxGeometry x="-250" y="920" width="60" height="30" as="geometry" />
        </mxCell>
        <mxCell id="Gv9M-R4YCzaX3h8LVKHw-136" value="M" style="rounded=0;whiteSpace=wrap;html=1;" vertex="1" parent="1">
          <mxGeometry x="220" y="1081" width="50" height="60" as="geometry" />
        </mxCell>
        <mxCell id="Gv9M-R4YCzaX3h8LVKHw-138" value="" style="endArrow=classic;html=1;rounded=0;exitX=1;exitY=0.5;exitDx=0;exitDy=0;" edge="1" parent="1" source="Gv9M-R4YCzaX3h8LVKHw-136">
          <mxGeometry width="50" height="50" relative="1" as="geometry">
            <mxPoint x="130" y="1261" as="sourcePoint" />
            <mxPoint x="380" y="1110" as="targetPoint" />
            <Array as="points">
              <mxPoint x="350" y="1111" />
            </Array>
          </mxGeometry>
        </mxCell>
        <mxCell id="Gv9M-R4YCzaX3h8LVKHw-141" value="AUX" style="rounded=0;whiteSpace=wrap;html=1;" vertex="1" parent="1">
          <mxGeometry x="-260" y="991" width="120" height="60" as="geometry" />
        </mxCell>
        <mxCell id="Gv9M-R4YCzaX3h8LVKHw-142" value="" style="endArrow=classic;html=1;rounded=0;exitX=0.5;exitY=1;exitDx=0;exitDy=0;" edge="1" parent="1" source="Gv9M-R4YCzaX3h8LVKHw-141">
          <mxGeometry width="50" height="50" relative="1" as="geometry">
            <mxPoint x="-10" y="1061" as="sourcePoint" />
            <mxPoint x="-130" y="1090" as="targetPoint" />
          </mxGeometry>
        </mxCell>
        <mxCell id="Gv9M-R4YCzaX3h8LVKHw-143" value="O" style="rounded=0;whiteSpace=wrap;html=1;" vertex="1" parent="1">
          <mxGeometry x="381.18" y="1070" width="50" height="60" as="geometry" />
        </mxCell>
        <mxCell id="Gv9M-R4YCzaX3h8LVKHw-144" value="" style="shape=mxgraph.arrows2.wedgeArrowDashed2;html=1;bendable=0;startWidth=50;stepSize=15;rounded=0;" edge="1" parent="1">
          <mxGeometry width="100" height="100" relative="1" as="geometry">
            <mxPoint x="492.36000000000007" y="1130" as="sourcePoint" />
            <mxPoint x="492.36000000000007" y="1180" as="targetPoint" />
          </mxGeometry>
        </mxCell>
        <mxCell id="Gv9M-R4YCzaX3h8LVKHw-145" value="" style="endArrow=classic;html=1;rounded=0;exitX=1;exitY=0.5;exitDx=0;exitDy=0;" edge="1" parent="1" source="Gv9M-R4YCzaX3h8LVKHw-143">
          <mxGeometry width="50" height="50" relative="1" as="geometry">
            <mxPoint x="291.18" y="1250" as="sourcePoint" />
            <mxPoint x="511.18" y="1130" as="targetPoint" />
            <Array as="points">
              <mxPoint x="511.18" y="1100" />
            </Array>
          </mxGeometry>
        </mxCell>
        <mxCell id="Gv9M-R4YCzaX3h8LVKHw-146" value="INICIO" style="rounded=0;whiteSpace=wrap;html=1;" vertex="1" parent="1">
          <mxGeometry x="830" y="960" width="120" height="60" as="geometry" />
        </mxCell>
        <mxCell id="Gv9M-R4YCzaX3h8LVKHw-147" value="FIM" style="rounded=0;whiteSpace=wrap;html=1;" vertex="1" parent="1">
          <mxGeometry x="1249.4099999999999" y="930" width="120" height="60" as="geometry" />
        </mxCell>
        <mxCell id="Gv9M-R4YCzaX3h8LVKHw-148" value="" style="endArrow=classic;html=1;rounded=0;exitX=0.75;exitY=1;exitDx=0;exitDy=0;entryX=0;entryY=0;entryDx=0;entryDy=0;" edge="1" parent="1" source="Gv9M-R4YCzaX3h8LVKHw-146" target="Gv9M-R4YCzaX3h8LVKHw-152">
          <mxGeometry width="50" height="50" relative="1" as="geometry">
            <mxPoint x="549.41" y="1241" as="sourcePoint" />
            <mxPoint x="729.41" y="1121" as="targetPoint" />
          </mxGeometry>
        </mxCell>
        <mxCell id="Gv9M-R4YCzaX3h8LVKHw-149" value="" style="endArrow=classic;html=1;rounded=0;exitX=0.25;exitY=1;exitDx=0;exitDy=0;entryX=0.5;entryY=0;entryDx=0;entryDy=0;" edge="1" parent="1" source="Gv9M-R4YCzaX3h8LVKHw-147" target="Gv9M-R4YCzaX3h8LVKHw-159">
          <mxGeometry width="50" height="50" relative="1" as="geometry">
            <mxPoint x="579.41" y="1101" as="sourcePoint" />
            <mxPoint x="629.41" y="1141" as="targetPoint" />
            <Array as="points" />
          </mxGeometry>
        </mxCell>
        <mxCell id="Gv9M-R4YCzaX3h8LVKHw-150" value="R" style="rounded=0;whiteSpace=wrap;html=1;" vertex="1" parent="1">
          <mxGeometry x="739.41" y="1071" width="50" height="60" as="geometry" />
        </mxCell>
        <mxCell id="Gv9M-R4YCzaX3h8LVKHw-151" value="" style="endArrow=classic;html=1;rounded=0;exitX=1;exitY=0.5;exitDx=0;exitDy=0;" edge="1" parent="1" source="Gv9M-R4YCzaX3h8LVKHw-150">
          <mxGeometry width="50" height="50" relative="1" as="geometry">
            <mxPoint x="649.41" y="1251" as="sourcePoint" />
            <mxPoint x="914.41" y="1101" as="targetPoint" />
            <Array as="points">
              <mxPoint x="869.41" y="1101" />
            </Array>
          </mxGeometry>
        </mxCell>
        <mxCell id="Gv9M-R4YCzaX3h8LVKHw-152" value="A" style="rounded=0;whiteSpace=wrap;html=1;" vertex="1" parent="1">
          <mxGeometry x="919.41" y="1061" width="50" height="60" as="geometry" />
        </mxCell>
        <mxCell id="Gv9M-R4YCzaX3h8LVKHw-153" value="" style="endArrow=classic;html=1;rounded=0;exitX=1;exitY=0.5;exitDx=0;exitDy=0;entryX=0;entryY=0.5;entryDx=0;entryDy=0;" edge="1" parent="1" source="Gv9M-R4YCzaX3h8LVKHw-152" target="Gv9M-R4YCzaX3h8LVKHw-155">
          <mxGeometry width="50" height="50" relative="1" as="geometry">
            <mxPoint x="829.41" y="1241" as="sourcePoint" />
            <mxPoint x="1049.4099999999999" y="1121" as="targetPoint" />
            <Array as="points">
              <mxPoint x="1049.4099999999999" y="1091" />
            </Array>
          </mxGeometry>
        </mxCell>
        <mxCell id="Gv9M-R4YCzaX3h8LVKHw-154" value="Passo 15" style="text;html=1;align=center;verticalAlign=middle;whiteSpace=wrap;rounded=0;" vertex="1" parent="1">
          <mxGeometry x="629.41" y="900" width="60" height="30" as="geometry" />
        </mxCell>
        <mxCell id="Gv9M-R4YCzaX3h8LVKHw-155" value="M" style="rounded=0;whiteSpace=wrap;html=1;" vertex="1" parent="1">
          <mxGeometry x="1099.4099999999999" y="1061" width="50" height="60" as="geometry" />
        </mxCell>
        <mxCell id="Gv9M-R4YCzaX3h8LVKHw-156" value="" style="endArrow=classic;html=1;rounded=0;exitX=1;exitY=0.5;exitDx=0;exitDy=0;" edge="1" parent="1" source="Gv9M-R4YCzaX3h8LVKHw-155">
          <mxGeometry width="50" height="50" relative="1" as="geometry">
            <mxPoint x="1009.41" y="1241" as="sourcePoint" />
            <mxPoint x="1259.4099999999999" y="1090" as="targetPoint" />
            <Array as="points">
              <mxPoint x="1229.4099999999999" y="1091" />
            </Array>
          </mxGeometry>
        </mxCell>
        <mxCell id="Gv9M-R4YCzaX3h8LVKHw-157" value="AUX" style="rounded=0;whiteSpace=wrap;html=1;" vertex="1" parent="1">
          <mxGeometry x="619.41" y="971" width="120" height="60" as="geometry" />
        </mxCell>
        <mxCell id="Gv9M-R4YCzaX3h8LVKHw-158" value="" style="endArrow=classic;html=1;rounded=0;exitX=0.5;exitY=1;exitDx=0;exitDy=0;" edge="1" parent="1" source="Gv9M-R4YCzaX3h8LVKHw-157">
          <mxGeometry width="50" height="50" relative="1" as="geometry">
            <mxPoint x="869.41" y="1041" as="sourcePoint" />
            <mxPoint x="749.41" y="1070" as="targetPoint" />
          </mxGeometry>
        </mxCell>
        <mxCell id="Gv9M-R4YCzaX3h8LVKHw-159" value="O" style="rounded=0;whiteSpace=wrap;html=1;" vertex="1" parent="1">
          <mxGeometry x="1260.59" y="1050" width="50" height="60" as="geometry" />
        </mxCell>
        <mxCell id="Gv9M-R4YCzaX3h8LVKHw-160" value="" style="shape=mxgraph.arrows2.wedgeArrowDashed2;html=1;bendable=0;startWidth=50;stepSize=15;rounded=0;" edge="1" parent="1">
          <mxGeometry width="100" height="100" relative="1" as="geometry">
            <mxPoint x="1371.77" y="1110" as="sourcePoint" />
            <mxPoint x="1371.77" y="1160" as="targetPoint" />
          </mxGeometry>
        </mxCell>
        <mxCell id="Gv9M-R4YCzaX3h8LVKHw-161" value="" style="endArrow=classic;html=1;rounded=0;exitX=1;exitY=0.5;exitDx=0;exitDy=0;" edge="1" parent="1" source="Gv9M-R4YCzaX3h8LVKHw-159">
          <mxGeometry width="50" height="50" relative="1" as="geometry">
            <mxPoint x="1170.59" y="1230" as="sourcePoint" />
            <mxPoint x="1390.5900000000001" y="1110" as="targetPoint" />
            <Array as="points">
              <mxPoint x="1390.5900000000001" y="1080" />
            </Array>
          </mxGeometry>
        </mxCell>
        <mxCell id="Gv9M-R4YCzaX3h8LVKHw-162" value="INICIO" style="rounded=0;whiteSpace=wrap;html=1;" vertex="1" parent="1">
          <mxGeometry x="830" y="1280" width="120" height="60" as="geometry" />
        </mxCell>
        <mxCell id="Gv9M-R4YCzaX3h8LVKHw-163" value="FIM" style="rounded=0;whiteSpace=wrap;html=1;" vertex="1" parent="1">
          <mxGeometry x="1249.4099999999999" y="1250" width="120" height="60" as="geometry" />
        </mxCell>
        <mxCell id="Gv9M-R4YCzaX3h8LVKHw-164" value="" style="endArrow=classic;html=1;rounded=0;exitX=0.75;exitY=1;exitDx=0;exitDy=0;entryX=0;entryY=0;entryDx=0;entryDy=0;" edge="1" parent="1" source="Gv9M-R4YCzaX3h8LVKHw-162" target="Gv9M-R4YCzaX3h8LVKHw-168">
          <mxGeometry width="50" height="50" relative="1" as="geometry">
            <mxPoint x="549.41" y="1561" as="sourcePoint" />
            <mxPoint x="729.41" y="1441" as="targetPoint" />
          </mxGeometry>
        </mxCell>
        <mxCell id="Gv9M-R4YCzaX3h8LVKHw-165" value="" style="endArrow=classic;html=1;rounded=0;exitX=0.25;exitY=1;exitDx=0;exitDy=0;entryX=0.5;entryY=0;entryDx=0;entryDy=0;" edge="1" parent="1" source="Gv9M-R4YCzaX3h8LVKHw-163" target="Gv9M-R4YCzaX3h8LVKHw-175">
          <mxGeometry width="50" height="50" relative="1" as="geometry">
            <mxPoint x="579.41" y="1421" as="sourcePoint" />
            <mxPoint x="629.41" y="1461" as="targetPoint" />
            <Array as="points" />
          </mxGeometry>
        </mxCell>
        <mxCell id="Gv9M-R4YCzaX3h8LVKHw-166" value="R" style="rounded=0;whiteSpace=wrap;html=1;" vertex="1" parent="1">
          <mxGeometry x="739.41" y="1391" width="50" height="60" as="geometry" />
        </mxCell>
        <mxCell id="Gv9M-R4YCzaX3h8LVKHw-167" value="" style="endArrow=classic;html=1;rounded=0;exitX=1;exitY=0.5;exitDx=0;exitDy=0;" edge="1" parent="1" source="Gv9M-R4YCzaX3h8LVKHw-166">
          <mxGeometry width="50" height="50" relative="1" as="geometry">
            <mxPoint x="649.41" y="1571" as="sourcePoint" />
            <mxPoint x="914.41" y="1421" as="targetPoint" />
            <Array as="points">
              <mxPoint x="869.41" y="1421" />
            </Array>
          </mxGeometry>
        </mxCell>
        <mxCell id="Gv9M-R4YCzaX3h8LVKHw-168" value="A" style="rounded=0;whiteSpace=wrap;html=1;" vertex="1" parent="1">
          <mxGeometry x="919.41" y="1381" width="50" height="60" as="geometry" />
        </mxCell>
        <mxCell id="Gv9M-R4YCzaX3h8LVKHw-169" value="" style="endArrow=classic;html=1;rounded=0;exitX=1;exitY=0.5;exitDx=0;exitDy=0;entryX=0;entryY=0.5;entryDx=0;entryDy=0;" edge="1" parent="1" source="Gv9M-R4YCzaX3h8LVKHw-168" target="Gv9M-R4YCzaX3h8LVKHw-171">
          <mxGeometry width="50" height="50" relative="1" as="geometry">
            <mxPoint x="829.41" y="1561" as="sourcePoint" />
            <mxPoint x="1049.4099999999999" y="1441" as="targetPoint" />
            <Array as="points">
              <mxPoint x="1049.4099999999999" y="1411" />
            </Array>
          </mxGeometry>
        </mxCell>
        <mxCell id="Gv9M-R4YCzaX3h8LVKHw-170" value="Passo 16" style="text;html=1;align=center;verticalAlign=middle;whiteSpace=wrap;rounded=0;" vertex="1" parent="1">
          <mxGeometry x="629.41" y="1220" width="60" height="30" as="geometry" />
        </mxCell>
        <mxCell id="Gv9M-R4YCzaX3h8LVKHw-171" value="M" style="rounded=0;whiteSpace=wrap;html=1;" vertex="1" parent="1">
          <mxGeometry x="1099.4099999999999" y="1381" width="50" height="60" as="geometry" />
        </mxCell>
        <mxCell id="Gv9M-R4YCzaX3h8LVKHw-172" value="" style="endArrow=classic;html=1;rounded=0;exitX=1;exitY=0.5;exitDx=0;exitDy=0;" edge="1" parent="1" source="Gv9M-R4YCzaX3h8LVKHw-171">
          <mxGeometry width="50" height="50" relative="1" as="geometry">
            <mxPoint x="1009.41" y="1561" as="sourcePoint" />
            <mxPoint x="1259.4099999999999" y="1410" as="targetPoint" />
            <Array as="points">
              <mxPoint x="1229.4099999999999" y="1411" />
            </Array>
          </mxGeometry>
        </mxCell>
        <mxCell id="Gv9M-R4YCzaX3h8LVKHw-173" value="AUX" style="rounded=0;whiteSpace=wrap;html=1;" vertex="1" parent="1">
          <mxGeometry x="619.41" y="1291" width="120" height="60" as="geometry" />
        </mxCell>
        <mxCell id="Gv9M-R4YCzaX3h8LVKHw-174" value="" style="endArrow=classic;html=1;rounded=0;exitX=0.5;exitY=1;exitDx=0;exitDy=0;" edge="1" parent="1" source="Gv9M-R4YCzaX3h8LVKHw-173">
          <mxGeometry width="50" height="50" relative="1" as="geometry">
            <mxPoint x="869.41" y="1361" as="sourcePoint" />
            <mxPoint x="749.41" y="1390" as="targetPoint" />
          </mxGeometry>
        </mxCell>
        <mxCell id="Gv9M-R4YCzaX3h8LVKHw-175" value="O" style="rounded=0;whiteSpace=wrap;html=1;" vertex="1" parent="1">
          <mxGeometry x="1260.59" y="1370" width="50" height="60" as="geometry" />
        </mxCell>
        <mxCell id="Gv9M-R4YCzaX3h8LVKHw-176" value="" style="shape=mxgraph.arrows2.wedgeArrowDashed2;html=1;bendable=0;startWidth=50;stepSize=15;rounded=0;" edge="1" parent="1">
          <mxGeometry width="100" height="100" relative="1" as="geometry">
            <mxPoint x="1371.77" y="1430" as="sourcePoint" />
            <mxPoint x="1371.77" y="1480" as="targetPoint" />
          </mxGeometry>
        </mxCell>
        <mxCell id="Gv9M-R4YCzaX3h8LVKHw-177" value="" style="endArrow=classic;html=1;rounded=0;exitX=1;exitY=0.5;exitDx=0;exitDy=0;" edge="1" parent="1" source="Gv9M-R4YCzaX3h8LVKHw-175">
          <mxGeometry width="50" height="50" relative="1" as="geometry">
            <mxPoint x="1170.59" y="1550" as="sourcePoint" />
            <mxPoint x="1390.5900000000001" y="1430" as="targetPoint" />
            <Array as="points">
              <mxPoint x="1390.5900000000001" y="1400" />
            </Array>
          </mxGeometry>
        </mxCell>
        <mxCell id="Gv9M-R4YCzaX3h8LVKHw-178" value="" style="shape=umlDestroy;whiteSpace=wrap;html=1;strokeWidth=3;targetShapes=umlLifeline;" vertex="1" parent="1">
          <mxGeometry x="750" y="1406" width="30" height="30" as="geometry" />
        </mxCell>
        <mxCell id="Gv9M-R4YCzaX3h8LVKHw-179" value="INICIO" style="rounded=0;whiteSpace=wrap;html=1;" vertex="1" parent="1">
          <mxGeometry x="930" y="1540" width="120" height="60" as="geometry" />
        </mxCell>
        <mxCell id="Gv9M-R4YCzaX3h8LVKHw-180" value="FIM" style="rounded=0;whiteSpace=wrap;html=1;" vertex="1" parent="1">
          <mxGeometry x="1228.82" y="1510" width="120" height="60" as="geometry" />
        </mxCell>
        <mxCell id="Gv9M-R4YCzaX3h8LVKHw-181" value="" style="endArrow=classic;html=1;rounded=0;exitX=0.75;exitY=1;exitDx=0;exitDy=0;" edge="1" parent="1" source="Gv9M-R4YCzaX3h8LVKHw-179">
          <mxGeometry width="50" height="50" relative="1" as="geometry">
            <mxPoint x="528.8199999999999" y="1821" as="sourcePoint" />
            <mxPoint x="950" y="1640" as="targetPoint" />
          </mxGeometry>
        </mxCell>
        <mxCell id="Gv9M-R4YCzaX3h8LVKHw-182" value="" style="endArrow=classic;html=1;rounded=0;exitX=0.25;exitY=1;exitDx=0;exitDy=0;entryX=0.5;entryY=0;entryDx=0;entryDy=0;" edge="1" parent="1" source="Gv9M-R4YCzaX3h8LVKHw-180" target="Gv9M-R4YCzaX3h8LVKHw-192">
          <mxGeometry width="50" height="50" relative="1" as="geometry">
            <mxPoint x="558.8199999999999" y="1681" as="sourcePoint" />
            <mxPoint x="608.8199999999999" y="1721" as="targetPoint" />
            <Array as="points" />
          </mxGeometry>
        </mxCell>
        <mxCell id="Gv9M-R4YCzaX3h8LVKHw-185" value="A" style="rounded=0;whiteSpace=wrap;html=1;" vertex="1" parent="1">
          <mxGeometry x="898.8199999999999" y="1641" width="50" height="60" as="geometry" />
        </mxCell>
        <mxCell id="Gv9M-R4YCzaX3h8LVKHw-186" value="" style="endArrow=classic;html=1;rounded=0;exitX=1;exitY=0.5;exitDx=0;exitDy=0;entryX=0;entryY=0.5;entryDx=0;entryDy=0;" edge="1" parent="1" source="Gv9M-R4YCzaX3h8LVKHw-185" target="Gv9M-R4YCzaX3h8LVKHw-188">
          <mxGeometry width="50" height="50" relative="1" as="geometry">
            <mxPoint x="808.8199999999999" y="1821" as="sourcePoint" />
            <mxPoint x="1028.82" y="1701" as="targetPoint" />
            <Array as="points">
              <mxPoint x="1028.82" y="1671" />
            </Array>
          </mxGeometry>
        </mxCell>
        <mxCell id="Gv9M-R4YCzaX3h8LVKHw-187" value="Passo 17" style="text;html=1;align=center;verticalAlign=middle;whiteSpace=wrap;rounded=0;" vertex="1" parent="1">
          <mxGeometry x="608.8199999999999" y="1480" width="60" height="30" as="geometry" />
        </mxCell>
        <mxCell id="Gv9M-R4YCzaX3h8LVKHw-188" value="M" style="rounded=0;whiteSpace=wrap;html=1;" vertex="1" parent="1">
          <mxGeometry x="1078.82" y="1641" width="50" height="60" as="geometry" />
        </mxCell>
        <mxCell id="Gv9M-R4YCzaX3h8LVKHw-189" value="" style="endArrow=classic;html=1;rounded=0;exitX=1;exitY=0.5;exitDx=0;exitDy=0;" edge="1" parent="1" source="Gv9M-R4YCzaX3h8LVKHw-188">
          <mxGeometry width="50" height="50" relative="1" as="geometry">
            <mxPoint x="988.8199999999999" y="1821" as="sourcePoint" />
            <mxPoint x="1238.82" y="1670" as="targetPoint" />
            <Array as="points">
              <mxPoint x="1208.82" y="1671" />
            </Array>
          </mxGeometry>
        </mxCell>
        <mxCell id="Gv9M-R4YCzaX3h8LVKHw-190" value="AUX" style="rounded=0;whiteSpace=wrap;html=1;" vertex="1" parent="1">
          <mxGeometry x="760" y="1540" width="120" height="60" as="geometry" />
        </mxCell>
        <mxCell id="Gv9M-R4YCzaX3h8LVKHw-191" value="" style="endArrow=classic;html=1;rounded=0;exitX=0.5;exitY=1;exitDx=0;exitDy=0;entryX=0;entryY=0.25;entryDx=0;entryDy=0;" edge="1" parent="1" source="Gv9M-R4YCzaX3h8LVKHw-190" target="Gv9M-R4YCzaX3h8LVKHw-185">
          <mxGeometry width="50" height="50" relative="1" as="geometry">
            <mxPoint x="848.8199999999999" y="1621" as="sourcePoint" />
            <mxPoint x="728.8199999999999" y="1650" as="targetPoint" />
          </mxGeometry>
        </mxCell>
        <mxCell id="Gv9M-R4YCzaX3h8LVKHw-192" value="O" style="rounded=0;whiteSpace=wrap;html=1;" vertex="1" parent="1">
          <mxGeometry x="1240" y="1630" width="50" height="60" as="geometry" />
        </mxCell>
        <mxCell id="Gv9M-R4YCzaX3h8LVKHw-193" value="" style="shape=mxgraph.arrows2.wedgeArrowDashed2;html=1;bendable=0;startWidth=50;stepSize=15;rounded=0;" edge="1" parent="1">
          <mxGeometry width="100" height="100" relative="1" as="geometry">
            <mxPoint x="1351.18" y="1690" as="sourcePoint" />
            <mxPoint x="1351.18" y="1740" as="targetPoint" />
          </mxGeometry>
        </mxCell>
        <mxCell id="Gv9M-R4YCzaX3h8LVKHw-194" value="" style="endArrow=classic;html=1;rounded=0;exitX=1;exitY=0.5;exitDx=0;exitDy=0;" edge="1" parent="1" source="Gv9M-R4YCzaX3h8LVKHw-192">
          <mxGeometry width="50" height="50" relative="1" as="geometry">
            <mxPoint x="1150" y="1810" as="sourcePoint" />
            <mxPoint x="1370.0000000000002" y="1690" as="targetPoint" />
            <Array as="points">
              <mxPoint x="1370.0000000000002" y="1660" />
            </Array>
          </mxGeometry>
        </mxCell>
        <mxCell id="Gv9M-R4YCzaX3h8LVKHw-196" value="INICIO" style="rounded=0;whiteSpace=wrap;html=1;" vertex="1" parent="1">
          <mxGeometry x="1010" y="1780" width="120" height="60" as="geometry" />
        </mxCell>
        <mxCell id="Gv9M-R4YCzaX3h8LVKHw-197" value="FIM" style="rounded=0;whiteSpace=wrap;html=1;" vertex="1" parent="1">
          <mxGeometry x="1244.4099999999999" y="1760" width="120" height="60" as="geometry" />
        </mxCell>
        <mxCell id="Gv9M-R4YCzaX3h8LVKHw-198" value="" style="endArrow=classic;html=1;rounded=0;exitX=0.75;exitY=1;exitDx=0;exitDy=0;" edge="1" parent="1" source="Gv9M-R4YCzaX3h8LVKHw-196">
          <mxGeometry width="50" height="50" relative="1" as="geometry">
            <mxPoint x="544.41" y="2071" as="sourcePoint" />
            <mxPoint x="1100" y="1890" as="targetPoint" />
          </mxGeometry>
        </mxCell>
        <mxCell id="Gv9M-R4YCzaX3h8LVKHw-199" value="" style="endArrow=classic;html=1;rounded=0;exitX=0.25;exitY=1;exitDx=0;exitDy=0;entryX=0.5;entryY=0;entryDx=0;entryDy=0;" edge="1" parent="1" source="Gv9M-R4YCzaX3h8LVKHw-197" target="Gv9M-R4YCzaX3h8LVKHw-207">
          <mxGeometry width="50" height="50" relative="1" as="geometry">
            <mxPoint x="574.41" y="1931" as="sourcePoint" />
            <mxPoint x="624.41" y="1971" as="targetPoint" />
            <Array as="points" />
          </mxGeometry>
        </mxCell>
        <mxCell id="Gv9M-R4YCzaX3h8LVKHw-200" value="A" style="rounded=0;whiteSpace=wrap;html=1;" vertex="1" parent="1">
          <mxGeometry x="914.41" y="1891" width="50" height="60" as="geometry" />
        </mxCell>
        <mxCell id="Gv9M-R4YCzaX3h8LVKHw-201" value="" style="endArrow=classic;html=1;rounded=0;exitX=1;exitY=0.5;exitDx=0;exitDy=0;entryX=0;entryY=0.5;entryDx=0;entryDy=0;" edge="1" parent="1" source="Gv9M-R4YCzaX3h8LVKHw-200" target="Gv9M-R4YCzaX3h8LVKHw-203">
          <mxGeometry width="50" height="50" relative="1" as="geometry">
            <mxPoint x="824.41" y="2071" as="sourcePoint" />
            <mxPoint x="1044.4099999999999" y="1951" as="targetPoint" />
            <Array as="points">
              <mxPoint x="1044.4099999999999" y="1921" />
            </Array>
          </mxGeometry>
        </mxCell>
        <mxCell id="Gv9M-R4YCzaX3h8LVKHw-202" value="Passo 18" style="text;html=1;align=center;verticalAlign=middle;whiteSpace=wrap;rounded=0;" vertex="1" parent="1">
          <mxGeometry x="624.41" y="1730" width="60" height="30" as="geometry" />
        </mxCell>
        <mxCell id="Gv9M-R4YCzaX3h8LVKHw-203" value="M" style="rounded=0;whiteSpace=wrap;html=1;" vertex="1" parent="1">
          <mxGeometry x="1094.4099999999999" y="1891" width="50" height="60" as="geometry" />
        </mxCell>
        <mxCell id="Gv9M-R4YCzaX3h8LVKHw-204" value="" style="endArrow=classic;html=1;rounded=0;exitX=1;exitY=0.5;exitDx=0;exitDy=0;" edge="1" parent="1" source="Gv9M-R4YCzaX3h8LVKHw-203">
          <mxGeometry width="50" height="50" relative="1" as="geometry">
            <mxPoint x="1004.41" y="2071" as="sourcePoint" />
            <mxPoint x="1254.4099999999999" y="1920" as="targetPoint" />
            <Array as="points">
              <mxPoint x="1224.4099999999999" y="1921" />
            </Array>
          </mxGeometry>
        </mxCell>
        <mxCell id="Gv9M-R4YCzaX3h8LVKHw-205" value="AUX" style="rounded=0;whiteSpace=wrap;html=1;" vertex="1" parent="1">
          <mxGeometry x="775.59" y="1790" width="120" height="60" as="geometry" />
        </mxCell>
        <mxCell id="Gv9M-R4YCzaX3h8LVKHw-206" value="" style="endArrow=classic;html=1;rounded=0;exitX=0.5;exitY=1;exitDx=0;exitDy=0;entryX=0;entryY=0.25;entryDx=0;entryDy=0;" edge="1" parent="1" source="Gv9M-R4YCzaX3h8LVKHw-205" target="Gv9M-R4YCzaX3h8LVKHw-200">
          <mxGeometry width="50" height="50" relative="1" as="geometry">
            <mxPoint x="864.41" y="1871" as="sourcePoint" />
            <mxPoint x="744.41" y="1900" as="targetPoint" />
          </mxGeometry>
        </mxCell>
        <mxCell id="Gv9M-R4YCzaX3h8LVKHw-207" value="O" style="rounded=0;whiteSpace=wrap;html=1;" vertex="1" parent="1">
          <mxGeometry x="1255.59" y="1880" width="50" height="60" as="geometry" />
        </mxCell>
        <mxCell id="Gv9M-R4YCzaX3h8LVKHw-208" value="" style="shape=mxgraph.arrows2.wedgeArrowDashed2;html=1;bendable=0;startWidth=50;stepSize=15;rounded=0;" edge="1" parent="1">
          <mxGeometry width="100" height="100" relative="1" as="geometry">
            <mxPoint x="1366.77" y="1940" as="sourcePoint" />
            <mxPoint x="1366.77" y="1990" as="targetPoint" />
          </mxGeometry>
        </mxCell>
        <mxCell id="Gv9M-R4YCzaX3h8LVKHw-209" value="" style="endArrow=classic;html=1;rounded=0;exitX=1;exitY=0.5;exitDx=0;exitDy=0;" edge="1" parent="1" source="Gv9M-R4YCzaX3h8LVKHw-207">
          <mxGeometry width="50" height="50" relative="1" as="geometry">
            <mxPoint x="1165.59" y="2060" as="sourcePoint" />
            <mxPoint x="1385.5900000000001" y="1940" as="targetPoint" />
            <Array as="points">
              <mxPoint x="1385.5900000000001" y="1910" />
            </Array>
          </mxGeometry>
        </mxCell>
        <mxCell id="Gv9M-R4YCzaX3h8LVKHw-210" value="INICIO" style="rounded=0;whiteSpace=wrap;html=1;" vertex="1" parent="1">
          <mxGeometry x="1005" y="2080" width="120" height="60" as="geometry" />
        </mxCell>
        <mxCell id="Gv9M-R4YCzaX3h8LVKHw-211" value="FIM" style="rounded=0;whiteSpace=wrap;html=1;" vertex="1" parent="1">
          <mxGeometry x="1239.4099999999999" y="2060" width="120" height="60" as="geometry" />
        </mxCell>
        <mxCell id="Gv9M-R4YCzaX3h8LVKHw-212" value="" style="endArrow=classic;html=1;rounded=0;exitX=0.75;exitY=1;exitDx=0;exitDy=0;" edge="1" parent="1" source="Gv9M-R4YCzaX3h8LVKHw-210">
          <mxGeometry width="50" height="50" relative="1" as="geometry">
            <mxPoint x="539.41" y="2371" as="sourcePoint" />
            <mxPoint x="1095" y="2190" as="targetPoint" />
          </mxGeometry>
        </mxCell>
        <mxCell id="Gv9M-R4YCzaX3h8LVKHw-213" value="" style="endArrow=classic;html=1;rounded=0;exitX=0.25;exitY=1;exitDx=0;exitDy=0;entryX=0.5;entryY=0;entryDx=0;entryDy=0;" edge="1" parent="1" source="Gv9M-R4YCzaX3h8LVKHw-211" target="Gv9M-R4YCzaX3h8LVKHw-221">
          <mxGeometry width="50" height="50" relative="1" as="geometry">
            <mxPoint x="569.41" y="2231" as="sourcePoint" />
            <mxPoint x="619.41" y="2271" as="targetPoint" />
            <Array as="points" />
          </mxGeometry>
        </mxCell>
        <mxCell id="Gv9M-R4YCzaX3h8LVKHw-214" value="A" style="rounded=0;whiteSpace=wrap;html=1;" vertex="1" parent="1">
          <mxGeometry x="909.41" y="2191" width="50" height="60" as="geometry" />
        </mxCell>
        <mxCell id="Gv9M-R4YCzaX3h8LVKHw-215" value="" style="endArrow=classic;html=1;rounded=0;exitX=1;exitY=0.5;exitDx=0;exitDy=0;entryX=0;entryY=0.5;entryDx=0;entryDy=0;" edge="1" parent="1" source="Gv9M-R4YCzaX3h8LVKHw-214" target="Gv9M-R4YCzaX3h8LVKHw-217">
          <mxGeometry width="50" height="50" relative="1" as="geometry">
            <mxPoint x="819.41" y="2371" as="sourcePoint" />
            <mxPoint x="1039.4099999999999" y="2251" as="targetPoint" />
            <Array as="points">
              <mxPoint x="1039.4099999999999" y="2221" />
            </Array>
          </mxGeometry>
        </mxCell>
        <mxCell id="Gv9M-R4YCzaX3h8LVKHw-216" value="Passo 19" style="text;html=1;align=center;verticalAlign=middle;whiteSpace=wrap;rounded=0;" vertex="1" parent="1">
          <mxGeometry x="619.41" y="2030" width="60" height="30" as="geometry" />
        </mxCell>
        <mxCell id="Gv9M-R4YCzaX3h8LVKHw-217" value="M" style="rounded=0;whiteSpace=wrap;html=1;" vertex="1" parent="1">
          <mxGeometry x="1089.4099999999999" y="2191" width="50" height="60" as="geometry" />
        </mxCell>
        <mxCell id="Gv9M-R4YCzaX3h8LVKHw-218" value="" style="endArrow=classic;html=1;rounded=0;exitX=1;exitY=0.5;exitDx=0;exitDy=0;" edge="1" parent="1" source="Gv9M-R4YCzaX3h8LVKHw-217">
          <mxGeometry width="50" height="50" relative="1" as="geometry">
            <mxPoint x="999.41" y="2371" as="sourcePoint" />
            <mxPoint x="1249.4099999999999" y="2220" as="targetPoint" />
            <Array as="points">
              <mxPoint x="1219.4099999999999" y="2221" />
            </Array>
          </mxGeometry>
        </mxCell>
        <mxCell id="Gv9M-R4YCzaX3h8LVKHw-219" value="AUX" style="rounded=0;whiteSpace=wrap;html=1;" vertex="1" parent="1">
          <mxGeometry x="770.59" y="2090" width="120" height="60" as="geometry" />
        </mxCell>
        <mxCell id="Gv9M-R4YCzaX3h8LVKHw-220" value="" style="endArrow=classic;html=1;rounded=0;exitX=0.5;exitY=1;exitDx=0;exitDy=0;entryX=0;entryY=0.25;entryDx=0;entryDy=0;" edge="1" parent="1" source="Gv9M-R4YCzaX3h8LVKHw-219" target="Gv9M-R4YCzaX3h8LVKHw-214">
          <mxGeometry width="50" height="50" relative="1" as="geometry">
            <mxPoint x="859.41" y="2171" as="sourcePoint" />
            <mxPoint x="739.41" y="2200" as="targetPoint" />
          </mxGeometry>
        </mxCell>
        <mxCell id="Gv9M-R4YCzaX3h8LVKHw-221" value="O" style="rounded=0;whiteSpace=wrap;html=1;" vertex="1" parent="1">
          <mxGeometry x="1250.59" y="2180" width="50" height="60" as="geometry" />
        </mxCell>
        <mxCell id="Gv9M-R4YCzaX3h8LVKHw-222" value="" style="shape=mxgraph.arrows2.wedgeArrowDashed2;html=1;bendable=0;startWidth=50;stepSize=15;rounded=0;" edge="1" parent="1">
          <mxGeometry width="100" height="100" relative="1" as="geometry">
            <mxPoint x="1361.77" y="2240" as="sourcePoint" />
            <mxPoint x="1361.77" y="2290" as="targetPoint" />
          </mxGeometry>
        </mxCell>
        <mxCell id="Gv9M-R4YCzaX3h8LVKHw-223" value="" style="endArrow=classic;html=1;rounded=0;exitX=1;exitY=0.5;exitDx=0;exitDy=0;" edge="1" parent="1" source="Gv9M-R4YCzaX3h8LVKHw-221">
          <mxGeometry width="50" height="50" relative="1" as="geometry">
            <mxPoint x="1160.59" y="2360" as="sourcePoint" />
            <mxPoint x="1380.5900000000001" y="2240" as="targetPoint" />
            <Array as="points">
              <mxPoint x="1380.5900000000001" y="2210" />
            </Array>
          </mxGeometry>
        </mxCell>
        <mxCell id="Gv9M-R4YCzaX3h8LVKHw-224" value="" style="shape=umlDestroy;whiteSpace=wrap;html=1;strokeWidth=3;targetShapes=umlLifeline;" vertex="1" parent="1">
          <mxGeometry x="920" y="2206" width="30" height="30" as="geometry" />
        </mxCell>
        <mxCell id="Gv9M-R4YCzaX3h8LVKHw-225" value="INICIO" style="rounded=0;whiteSpace=wrap;html=1;" vertex="1" parent="1">
          <mxGeometry x="770.59" y="2340" width="120" height="60" as="geometry" />
        </mxCell>
        <mxCell id="Gv9M-R4YCzaX3h8LVKHw-226" value="FIM" style="rounded=0;whiteSpace=wrap;html=1;" vertex="1" parent="1">
          <mxGeometry x="1004.9999999999998" y="2320" width="120" height="60" as="geometry" />
        </mxCell>
        <mxCell id="Gv9M-R4YCzaX3h8LVKHw-227" value="" style="endArrow=classic;html=1;rounded=0;exitX=0.75;exitY=1;exitDx=0;exitDy=0;" edge="1" parent="1" source="Gv9M-R4YCzaX3h8LVKHw-225">
          <mxGeometry width="50" height="50" relative="1" as="geometry">
            <mxPoint x="305" y="2631" as="sourcePoint" />
            <mxPoint x="860.5899999999999" y="2450" as="targetPoint" />
          </mxGeometry>
        </mxCell>
        <mxCell id="Gv9M-R4YCzaX3h8LVKHw-228" value="" style="endArrow=classic;html=1;rounded=0;exitX=0.25;exitY=1;exitDx=0;exitDy=0;entryX=0.5;entryY=0;entryDx=0;entryDy=0;" edge="1" parent="1" source="Gv9M-R4YCzaX3h8LVKHw-226" target="Gv9M-R4YCzaX3h8LVKHw-235">
          <mxGeometry width="50" height="50" relative="1" as="geometry">
            <mxPoint x="335" y="2491" as="sourcePoint" />
            <mxPoint x="385" y="2531" as="targetPoint" />
            <Array as="points" />
          </mxGeometry>
        </mxCell>
        <mxCell id="Gv9M-R4YCzaX3h8LVKHw-231" value="M" style="rounded=0;whiteSpace=wrap;html=1;" vertex="1" parent="1">
          <mxGeometry x="854.9999999999998" y="2451" width="50" height="60" as="geometry" />
        </mxCell>
        <mxCell id="Gv9M-R4YCzaX3h8LVKHw-232" value="" style="endArrow=classic;html=1;rounded=0;exitX=1;exitY=0.5;exitDx=0;exitDy=0;" edge="1" parent="1" source="Gv9M-R4YCzaX3h8LVKHw-231">
          <mxGeometry width="50" height="50" relative="1" as="geometry">
            <mxPoint x="765" y="2631" as="sourcePoint" />
            <mxPoint x="1014.9999999999998" y="2480" as="targetPoint" />
            <Array as="points">
              <mxPoint x="984.9999999999998" y="2481" />
            </Array>
          </mxGeometry>
        </mxCell>
        <mxCell id="Gv9M-R4YCzaX3h8LVKHw-235" value="O" style="rounded=0;whiteSpace=wrap;html=1;" vertex="1" parent="1">
          <mxGeometry x="1016.1799999999998" y="2440" width="50" height="60" as="geometry" />
        </mxCell>
        <mxCell id="Gv9M-R4YCzaX3h8LVKHw-236" value="" style="shape=mxgraph.arrows2.wedgeArrowDashed2;html=1;bendable=0;startWidth=50;stepSize=15;rounded=0;" edge="1" parent="1">
          <mxGeometry width="100" height="100" relative="1" as="geometry">
            <mxPoint x="1127.36" y="2500" as="sourcePoint" />
            <mxPoint x="1127.36" y="2550" as="targetPoint" />
          </mxGeometry>
        </mxCell>
        <mxCell id="Gv9M-R4YCzaX3h8LVKHw-237" value="" style="endArrow=classic;html=1;rounded=0;exitX=1;exitY=0.5;exitDx=0;exitDy=0;" edge="1" parent="1" source="Gv9M-R4YCzaX3h8LVKHw-235">
          <mxGeometry width="50" height="50" relative="1" as="geometry">
            <mxPoint x="926.1799999999998" y="2620" as="sourcePoint" />
            <mxPoint x="1146.18" y="2500" as="targetPoint" />
            <Array as="points">
              <mxPoint x="1146.18" y="2470" />
            </Array>
          </mxGeometry>
        </mxCell>
        <mxCell id="Gv9M-R4YCzaX3h8LVKHw-239" value="Passo 20" style="text;html=1;align=center;verticalAlign=middle;whiteSpace=wrap;rounded=0;" vertex="1" parent="1">
          <mxGeometry x="619.41" y="2300" width="60" height="30" as="geometry" />
        </mxCell>
        <mxCell id="Gv9M-R4YCzaX3h8LVKHw-240" value="S" style="rounded=0;whiteSpace=wrap;html=1;" vertex="1" parent="1">
          <mxGeometry x="1239.4099999999999" y="2430" width="50" height="60" as="geometry" />
        </mxCell>
        <mxCell id="Gv9M-R4YCzaX3h8LVKHw-241" value="" style="shape=mxgraph.arrows2.wedgeArrowDashed2;html=1;bendable=0;startWidth=50;stepSize=15;rounded=0;" edge="1" parent="1">
          <mxGeometry width="100" height="100" relative="1" as="geometry">
            <mxPoint x="1350.59" y="2490" as="sourcePoint" />
            <mxPoint x="1350.59" y="2540" as="targetPoint" />
          </mxGeometry>
        </mxCell>
        <mxCell id="Gv9M-R4YCzaX3h8LVKHw-242" value="" style="endArrow=classic;html=1;rounded=0;exitX=1;exitY=0.5;exitDx=0;exitDy=0;" edge="1" parent="1" source="Gv9M-R4YCzaX3h8LVKHw-240">
          <mxGeometry width="50" height="50" relative="1" as="geometry">
            <mxPoint x="1149.4099999999999" y="2610" as="sourcePoint" />
            <mxPoint x="1369.41" y="2490" as="targetPoint" />
            <Array as="points">
              <mxPoint x="1369.41" y="2460" />
            </Array>
          </mxGeometry>
        </mxCell>
        <mxCell id="Gv9M-R4YCzaX3h8LVKHw-243" value="NOVO" style="rounded=0;whiteSpace=wrap;html=1;" vertex="1" parent="1">
          <mxGeometry x="1249.41" y="2330" width="120" height="60" as="geometry" />
        </mxCell>
        <mxCell id="Gv9M-R4YCzaX3h8LVKHw-244" value="" style="endArrow=classic;html=1;rounded=0;exitX=0.11;exitY=1.029;exitDx=0;exitDy=0;exitPerimeter=0;entryX=0.5;entryY=0;entryDx=0;entryDy=0;" edge="1" parent="1" source="Gv9M-R4YCzaX3h8LVKHw-243">
          <mxGeometry width="50" height="50" relative="1" as="geometry">
            <mxPoint x="1139.41" y="2610" as="sourcePoint" />
            <mxPoint x="1254.41" y="2430" as="targetPoint" />
          </mxGeometry>
        </mxCell>
        <mxCell id="Gv9M-R4YCzaX3h8LVKHw-245" value="INICIO" style="rounded=0;whiteSpace=wrap;html=1;" vertex="1" parent="1">
          <mxGeometry x="775.59" y="2630" width="120" height="60" as="geometry" />
        </mxCell>
        <mxCell id="Gv9M-R4YCzaX3h8LVKHw-246" value="FIM" style="rounded=0;whiteSpace=wrap;html=1;" vertex="1" parent="1">
          <mxGeometry x="1009.9999999999998" y="2610" width="120" height="60" as="geometry" />
        </mxCell>
        <mxCell id="Gv9M-R4YCzaX3h8LVKHw-247" value="" style="endArrow=classic;html=1;rounded=0;exitX=0.75;exitY=1;exitDx=0;exitDy=0;" edge="1" parent="1" source="Gv9M-R4YCzaX3h8LVKHw-245">
          <mxGeometry width="50" height="50" relative="1" as="geometry">
            <mxPoint x="310" y="2921" as="sourcePoint" />
            <mxPoint x="865.5899999999999" y="2740" as="targetPoint" />
          </mxGeometry>
        </mxCell>
        <mxCell id="Gv9M-R4YCzaX3h8LVKHw-248" value="" style="endArrow=classic;html=1;rounded=0;exitX=0.25;exitY=1;exitDx=0;exitDy=0;entryX=0.5;entryY=0;entryDx=0;entryDy=0;" edge="1" parent="1" source="Gv9M-R4YCzaX3h8LVKHw-246" target="Gv9M-R4YCzaX3h8LVKHw-251">
          <mxGeometry width="50" height="50" relative="1" as="geometry">
            <mxPoint x="340" y="2781" as="sourcePoint" />
            <mxPoint x="390" y="2821" as="targetPoint" />
            <Array as="points" />
          </mxGeometry>
        </mxCell>
        <mxCell id="Gv9M-R4YCzaX3h8LVKHw-249" value="M" style="rounded=0;whiteSpace=wrap;html=1;" vertex="1" parent="1">
          <mxGeometry x="859.9999999999998" y="2741" width="50" height="60" as="geometry" />
        </mxCell>
        <mxCell id="Gv9M-R4YCzaX3h8LVKHw-250" value="" style="endArrow=classic;html=1;rounded=0;exitX=1;exitY=0.5;exitDx=0;exitDy=0;" edge="1" parent="1" source="Gv9M-R4YCzaX3h8LVKHw-249">
          <mxGeometry width="50" height="50" relative="1" as="geometry">
            <mxPoint x="770" y="2921" as="sourcePoint" />
            <mxPoint x="1019.9999999999998" y="2770" as="targetPoint" />
            <Array as="points">
              <mxPoint x="989.9999999999998" y="2771" />
            </Array>
          </mxGeometry>
        </mxCell>
        <mxCell id="Gv9M-R4YCzaX3h8LVKHw-251" value="O" style="rounded=0;whiteSpace=wrap;html=1;" vertex="1" parent="1">
          <mxGeometry x="1021.1799999999998" y="2730" width="50" height="60" as="geometry" />
        </mxCell>
        <mxCell id="Gv9M-R4YCzaX3h8LVKHw-253" value="" style="endArrow=classic;html=1;rounded=0;exitX=1;exitY=0.5;exitDx=0;exitDy=0;entryX=0;entryY=0.5;entryDx=0;entryDy=0;" edge="1" parent="1" source="Gv9M-R4YCzaX3h8LVKHw-251" target="Gv9M-R4YCzaX3h8LVKHw-255">
          <mxGeometry width="50" height="50" relative="1" as="geometry">
            <mxPoint x="931.1799999999998" y="2910" as="sourcePoint" />
            <mxPoint x="1151.18" y="2790" as="targetPoint" />
            <Array as="points">
              <mxPoint x="1151.18" y="2760" />
            </Array>
          </mxGeometry>
        </mxCell>
        <mxCell id="Gv9M-R4YCzaX3h8LVKHw-254" value="Passo 21" style="text;html=1;align=center;verticalAlign=middle;whiteSpace=wrap;rounded=0;" vertex="1" parent="1">
          <mxGeometry x="624.41" y="2590" width="60" height="30" as="geometry" />
        </mxCell>
        <mxCell id="Gv9M-R4YCzaX3h8LVKHw-255" value="S" style="rounded=0;whiteSpace=wrap;html=1;" vertex="1" parent="1">
          <mxGeometry x="1244.4099999999999" y="2720" width="50" height="60" as="geometry" />
        </mxCell>
        <mxCell id="Gv9M-R4YCzaX3h8LVKHw-256" value="" style="shape=mxgraph.arrows2.wedgeArrowDashed2;html=1;bendable=0;startWidth=50;stepSize=15;rounded=0;" edge="1" parent="1">
          <mxGeometry width="100" height="100" relative="1" as="geometry">
            <mxPoint x="1355.59" y="2780" as="sourcePoint" />
            <mxPoint x="1355.59" y="2830" as="targetPoint" />
          </mxGeometry>
        </mxCell>
        <mxCell id="Gv9M-R4YCzaX3h8LVKHw-257" value="" style="endArrow=classic;html=1;rounded=0;exitX=1;exitY=0.5;exitDx=0;exitDy=0;" edge="1" parent="1" source="Gv9M-R4YCzaX3h8LVKHw-255">
          <mxGeometry width="50" height="50" relative="1" as="geometry">
            <mxPoint x="1154.4099999999999" y="2900" as="sourcePoint" />
            <mxPoint x="1374.41" y="2780" as="targetPoint" />
            <Array as="points">
              <mxPoint x="1374.41" y="2750" />
            </Array>
          </mxGeometry>
        </mxCell>
        <mxCell id="Gv9M-R4YCzaX3h8LVKHw-258" value="NOVO" style="rounded=0;whiteSpace=wrap;html=1;" vertex="1" parent="1">
          <mxGeometry x="1254.41" y="2620" width="120" height="60" as="geometry" />
        </mxCell>
        <mxCell id="Gv9M-R4YCzaX3h8LVKHw-259" value="" style="endArrow=classic;html=1;rounded=0;exitX=0.11;exitY=1.029;exitDx=0;exitDy=0;exitPerimeter=0;entryX=0.5;entryY=0;entryDx=0;entryDy=0;" edge="1" parent="1" source="Gv9M-R4YCzaX3h8LVKHw-258">
          <mxGeometry width="50" height="50" relative="1" as="geometry">
            <mxPoint x="1144.41" y="2900" as="sourcePoint" />
            <mxPoint x="1259.41" y="2720" as="targetPoint" />
          </mxGeometry>
        </mxCell>
        <mxCell id="Gv9M-R4YCzaX3h8LVKHw-260" value="INICIO" style="rounded=0;whiteSpace=wrap;html=1;" vertex="1" parent="1">
          <mxGeometry x="820" y="2920" width="120" height="60" as="geometry" />
        </mxCell>
        <mxCell id="Gv9M-R4YCzaX3h8LVKHw-261" value="FIM" style="rounded=0;whiteSpace=wrap;html=1;" vertex="1" parent="1">
          <mxGeometry x="1174.4099999999999" y="2920" width="120" height="60" as="geometry" />
        </mxCell>
        <mxCell id="Gv9M-R4YCzaX3h8LVKHw-262" value="" style="endArrow=classic;html=1;rounded=0;exitX=0.75;exitY=1;exitDx=0;exitDy=0;" edge="1" parent="1" source="Gv9M-R4YCzaX3h8LVKHw-260">
          <mxGeometry width="50" height="50" relative="1" as="geometry">
            <mxPoint x="354.40999999999997" y="3211" as="sourcePoint" />
            <mxPoint x="909.9999999999999" y="3030" as="targetPoint" />
          </mxGeometry>
        </mxCell>
        <mxCell id="Gv9M-R4YCzaX3h8LVKHw-263" value="" style="endArrow=classic;html=1;rounded=0;exitX=0.25;exitY=1;exitDx=0;exitDy=0;entryX=0;entryY=0;entryDx=0;entryDy=0;" edge="1" parent="1" source="Gv9M-R4YCzaX3h8LVKHw-261" target="Gv9M-R4YCzaX3h8LVKHw-268">
          <mxGeometry width="50" height="50" relative="1" as="geometry">
            <mxPoint x="384.40999999999997" y="3071" as="sourcePoint" />
            <mxPoint x="434.40999999999997" y="3111" as="targetPoint" />
            <Array as="points" />
          </mxGeometry>
        </mxCell>
        <mxCell id="Gv9M-R4YCzaX3h8LVKHw-264" value="M" style="rounded=0;whiteSpace=wrap;html=1;" vertex="1" parent="1">
          <mxGeometry x="904.4099999999997" y="3031" width="50" height="60" as="geometry" />
        </mxCell>
        <mxCell id="Gv9M-R4YCzaX3h8LVKHw-265" value="" style="endArrow=classic;html=1;rounded=0;exitX=1;exitY=0.5;exitDx=0;exitDy=0;" edge="1" parent="1" source="Gv9M-R4YCzaX3h8LVKHw-264">
          <mxGeometry width="50" height="50" relative="1" as="geometry">
            <mxPoint x="814.41" y="3211" as="sourcePoint" />
            <mxPoint x="1064.4099999999999" y="3060" as="targetPoint" />
            <Array as="points">
              <mxPoint x="1034.4099999999999" y="3061" />
            </Array>
          </mxGeometry>
        </mxCell>
        <mxCell id="Gv9M-R4YCzaX3h8LVKHw-266" value="O" style="rounded=0;whiteSpace=wrap;html=1;" vertex="1" parent="1">
          <mxGeometry x="1065.59" y="3020" width="50" height="60" as="geometry" />
        </mxCell>
        <mxCell id="Gv9M-R4YCzaX3h8LVKHw-267" value="" style="endArrow=classic;html=1;rounded=0;exitX=1;exitY=0.5;exitDx=0;exitDy=0;entryX=0;entryY=0.5;entryDx=0;entryDy=0;" edge="1" parent="1" source="Gv9M-R4YCzaX3h8LVKHw-266" target="Gv9M-R4YCzaX3h8LVKHw-268">
          <mxGeometry width="50" height="50" relative="1" as="geometry">
            <mxPoint x="975.5899999999998" y="3200" as="sourcePoint" />
            <mxPoint x="1195.5900000000001" y="3080" as="targetPoint" />
            <Array as="points">
              <mxPoint x="1195.5900000000001" y="3050" />
            </Array>
          </mxGeometry>
        </mxCell>
        <mxCell id="Gv9M-R4YCzaX3h8LVKHw-268" value="S" style="rounded=0;whiteSpace=wrap;html=1;" vertex="1" parent="1">
          <mxGeometry x="1288.82" y="3010" width="50" height="60" as="geometry" />
        </mxCell>
        <mxCell id="Gv9M-R4YCzaX3h8LVKHw-269" value="" style="shape=mxgraph.arrows2.wedgeArrowDashed2;html=1;bendable=0;startWidth=50;stepSize=15;rounded=0;" edge="1" parent="1">
          <mxGeometry width="100" height="100" relative="1" as="geometry">
            <mxPoint x="1400" y="3070" as="sourcePoint" />
            <mxPoint x="1400" y="3120" as="targetPoint" />
          </mxGeometry>
        </mxCell>
        <mxCell id="Gv9M-R4YCzaX3h8LVKHw-270" value="" style="endArrow=classic;html=1;rounded=0;exitX=1;exitY=0.5;exitDx=0;exitDy=0;" edge="1" parent="1" source="Gv9M-R4YCzaX3h8LVKHw-268">
          <mxGeometry width="50" height="50" relative="1" as="geometry">
            <mxPoint x="1198.82" y="3190" as="sourcePoint" />
            <mxPoint x="1418.8200000000002" y="3070" as="targetPoint" />
            <Array as="points">
              <mxPoint x="1418.8200000000002" y="3040" />
            </Array>
          </mxGeometry>
        </mxCell>
        <mxCell id="Gv9M-R4YCzaX3h8LVKHw-271" value="NOVO" style="rounded=0;whiteSpace=wrap;html=1;" vertex="1" parent="1">
          <mxGeometry x="1338.8200000000002" y="2910" width="120" height="60" as="geometry" />
        </mxCell>
        <mxCell id="Gv9M-R4YCzaX3h8LVKHw-272" value="" style="endArrow=classic;html=1;rounded=0;exitX=0.11;exitY=1.029;exitDx=0;exitDy=0;exitPerimeter=0;entryX=1;entryY=0;entryDx=0;entryDy=0;" edge="1" parent="1" source="Gv9M-R4YCzaX3h8LVKHw-271" target="Gv9M-R4YCzaX3h8LVKHw-268">
          <mxGeometry width="50" height="50" relative="1" as="geometry">
            <mxPoint x="1188.8200000000002" y="3190" as="sourcePoint" />
            <mxPoint x="1303.8200000000002" y="3010" as="targetPoint" />
          </mxGeometry>
        </mxCell>
        <mxCell id="Gv9M-R4YCzaX3h8LVKHw-273" value="Passo 22" style="text;html=1;align=center;verticalAlign=middle;resizable=0;points=[];autosize=1;strokeColor=none;fillColor=none;" vertex="1" parent="1">
          <mxGeometry x="635" y="2868" width="70" height="30" as="geometry" />
        </mxCell>
        <mxCell id="Gv9M-R4YCzaX3h8LVKHw-274" value="INICIO" style="rounded=0;whiteSpace=wrap;html=1;" vertex="1" parent="1">
          <mxGeometry x="830" y="3230" width="120" height="60" as="geometry" />
        </mxCell>
        <mxCell id="Gv9M-R4YCzaX3h8LVKHw-275" value="FIM" style="rounded=0;whiteSpace=wrap;html=1;" vertex="1" parent="1">
          <mxGeometry x="1269.9999999999998" y="3230" width="120" height="60" as="geometry" />
        </mxCell>
        <mxCell id="Gv9M-R4YCzaX3h8LVKHw-276" value="" style="endArrow=classic;html=1;rounded=0;exitX=0.75;exitY=1;exitDx=0;exitDy=0;" edge="1" parent="1" source="Gv9M-R4YCzaX3h8LVKHw-274">
          <mxGeometry width="50" height="50" relative="1" as="geometry">
            <mxPoint x="364.40999999999997" y="3521" as="sourcePoint" />
            <mxPoint x="919.9999999999999" y="3340" as="targetPoint" />
          </mxGeometry>
        </mxCell>
        <mxCell id="Gv9M-R4YCzaX3h8LVKHw-277" value="" style="endArrow=classic;html=1;rounded=0;exitX=0.25;exitY=1;exitDx=0;exitDy=0;entryX=0;entryY=0;entryDx=0;entryDy=0;" edge="1" parent="1" source="Gv9M-R4YCzaX3h8LVKHw-275" target="Gv9M-R4YCzaX3h8LVKHw-282">
          <mxGeometry width="50" height="50" relative="1" as="geometry">
            <mxPoint x="394.40999999999997" y="3381" as="sourcePoint" />
            <mxPoint x="444.40999999999997" y="3421" as="targetPoint" />
            <Array as="points" />
          </mxGeometry>
        </mxCell>
        <mxCell id="Gv9M-R4YCzaX3h8LVKHw-278" value="M" style="rounded=0;whiteSpace=wrap;html=1;" vertex="1" parent="1">
          <mxGeometry x="914.4099999999997" y="3341" width="50" height="60" as="geometry" />
        </mxCell>
        <mxCell id="Gv9M-R4YCzaX3h8LVKHw-279" value="" style="endArrow=classic;html=1;rounded=0;exitX=1;exitY=0.5;exitDx=0;exitDy=0;" edge="1" parent="1" source="Gv9M-R4YCzaX3h8LVKHw-278">
          <mxGeometry width="50" height="50" relative="1" as="geometry">
            <mxPoint x="824.41" y="3521" as="sourcePoint" />
            <mxPoint x="1074.4099999999999" y="3370" as="targetPoint" />
            <Array as="points">
              <mxPoint x="1044.4099999999999" y="3371" />
            </Array>
          </mxGeometry>
        </mxCell>
        <mxCell id="Gv9M-R4YCzaX3h8LVKHw-280" value="O" style="rounded=0;whiteSpace=wrap;html=1;" vertex="1" parent="1">
          <mxGeometry x="1075.59" y="3330" width="50" height="60" as="geometry" />
        </mxCell>
        <mxCell id="Gv9M-R4YCzaX3h8LVKHw-281" value="" style="endArrow=classic;html=1;rounded=0;exitX=1;exitY=0.5;exitDx=0;exitDy=0;entryX=0;entryY=0.5;entryDx=0;entryDy=0;" edge="1" parent="1" source="Gv9M-R4YCzaX3h8LVKHw-280" target="Gv9M-R4YCzaX3h8LVKHw-282">
          <mxGeometry width="50" height="50" relative="1" as="geometry">
            <mxPoint x="985.5899999999998" y="3510" as="sourcePoint" />
            <mxPoint x="1205.5900000000001" y="3390" as="targetPoint" />
            <Array as="points">
              <mxPoint x="1205.5900000000001" y="3360" />
            </Array>
          </mxGeometry>
        </mxCell>
        <mxCell id="Gv9M-R4YCzaX3h8LVKHw-282" value="S" style="rounded=0;whiteSpace=wrap;html=1;" vertex="1" parent="1">
          <mxGeometry x="1298.82" y="3320" width="50" height="60" as="geometry" />
        </mxCell>
        <mxCell id="Gv9M-R4YCzaX3h8LVKHw-283" value="" style="shape=mxgraph.arrows2.wedgeArrowDashed2;html=1;bendable=0;startWidth=50;stepSize=15;rounded=0;" edge="1" parent="1">
          <mxGeometry width="100" height="100" relative="1" as="geometry">
            <mxPoint x="1410" y="3380" as="sourcePoint" />
            <mxPoint x="1410" y="3430" as="targetPoint" />
          </mxGeometry>
        </mxCell>
        <mxCell id="Gv9M-R4YCzaX3h8LVKHw-284" value="" style="endArrow=classic;html=1;rounded=0;exitX=1;exitY=0.5;exitDx=0;exitDy=0;" edge="1" parent="1" source="Gv9M-R4YCzaX3h8LVKHw-282">
          <mxGeometry width="50" height="50" relative="1" as="geometry">
            <mxPoint x="1208.82" y="3500" as="sourcePoint" />
            <mxPoint x="1428.8200000000002" y="3380" as="targetPoint" />
            <Array as="points">
              <mxPoint x="1428.8200000000002" y="3350" />
            </Array>
          </mxGeometry>
        </mxCell>
        <mxCell id="Gv9M-R4YCzaX3h8LVKHw-287" value="T" style="rounded=0;whiteSpace=wrap;html=1;" vertex="1" parent="1">
          <mxGeometry x="1523.9999999999998" y="3330" width="50" height="60" as="geometry" />
        </mxCell>
        <mxCell id="Gv9M-R4YCzaX3h8LVKHw-288" value="" style="shape=mxgraph.arrows2.wedgeArrowDashed2;html=1;bendable=0;startWidth=50;stepSize=15;rounded=0;" edge="1" parent="1">
          <mxGeometry width="100" height="100" relative="1" as="geometry">
            <mxPoint x="1635.1799999999998" y="3390" as="sourcePoint" />
            <mxPoint x="1635.1799999999998" y="3440" as="targetPoint" />
          </mxGeometry>
        </mxCell>
        <mxCell id="Gv9M-R4YCzaX3h8LVKHw-289" value="" style="endArrow=classic;html=1;rounded=0;exitX=1;exitY=0.5;exitDx=0;exitDy=0;" edge="1" parent="1" source="Gv9M-R4YCzaX3h8LVKHw-287">
          <mxGeometry width="50" height="50" relative="1" as="geometry">
            <mxPoint x="1433.9999999999998" y="3510" as="sourcePoint" />
            <mxPoint x="1654" y="3390" as="targetPoint" />
            <Array as="points">
              <mxPoint x="1654" y="3360" />
            </Array>
          </mxGeometry>
        </mxCell>
        <mxCell id="Gv9M-R4YCzaX3h8LVKHw-290" value="NOVO" style="rounded=0;whiteSpace=wrap;html=1;" vertex="1" parent="1">
          <mxGeometry x="1534" y="3230" width="120" height="60" as="geometry" />
        </mxCell>
        <mxCell id="Gv9M-R4YCzaX3h8LVKHw-291" value="" style="endArrow=classic;html=1;rounded=0;exitX=0.11;exitY=1.029;exitDx=0;exitDy=0;exitPerimeter=0;entryX=0.5;entryY=0;entryDx=0;entryDy=0;" edge="1" parent="1" source="Gv9M-R4YCzaX3h8LVKHw-290">
          <mxGeometry width="50" height="50" relative="1" as="geometry">
            <mxPoint x="1424" y="3510" as="sourcePoint" />
            <mxPoint x="1539" y="3330" as="targetPoint" />
          </mxGeometry>
        </mxCell>
        <mxCell id="Gv9M-R4YCzaX3h8LVKHw-292" value="Passo 23" style="text;html=1;align=center;verticalAlign=middle;resizable=0;points=[];autosize=1;strokeColor=none;fillColor=none;" vertex="1" parent="1">
          <mxGeometry x="644.41" y="3180" width="70" height="30" as="geometry" />
        </mxCell>
      </root>
    </mxGraphModel>
  </diagram>
</mxfile>
